<?xml version="1.0" standalone="no"?>
<!DOCTYPE svg PUBLIC "-//W3C//DTD SVG 1.1//EN" "http://www.w3.org/Graphics/SVG/1.1/DTD/svg11.dtd" >
<svg xmlns="http://www.w3.org/2000/svg" xmlns:xlink="http://www.w3.org/1999/xlink" version="1.1">
<metadata></metadata>
<defs>
<font id="mixolydian_titlingbold" horiz-adv-x="625" >
<font-face units-per-em="1000" ascent="760" descent="-240" />
<missing-glyph horiz-adv-x="308" />
<glyph horiz-adv-x="308" />
<glyph unicode=" "  horiz-adv-x="308" />
<glyph unicode="&#x09;" horiz-adv-x="308" />
<glyph unicode="&#xa0;" horiz-adv-x="308" />
<glyph unicode="!" horiz-adv-x="305" d="M110 214l-39 333v180h164v-180l-41 -333h-84zM80 0v132h146v-132h-146z" />
<glyph unicode="&#x22;" horiz-adv-x="435" d="M47 406zM66 406l-19 336h146l-22 -336h-105zM261 406l-19 336h146l-22 -336h-105z" />
<glyph unicode="#" horiz-adv-x="627" d="M299 0l33 170h-110l-33 -170h-107l33 170h-96v118h119l30 156h-101v118h124l32 165h110l-33 -165h110l33 165h107l-33 -165h89v-118h-113l-32 -156h101v-118h-124l-34 -170h-105zM387 444h-110l-31 -156h110z" />
<glyph unicode="$" horiz-adv-x="533" d="M196 0v77q-30 7 -57.5 22t-49 36t-35.5 49t-17 62l142 30q3 -13 7 -27.5t12 -26.5t22.5 -20t38.5 -8q33 0 50.5 14t17.5 38q0 23 -17.5 39.5t-62.5 30.5q-44 14 -79 29t-60 35.5t-38.5 50t-13.5 71.5q0 28 11.5 51.5t30.5 42.5t44.5 32t53.5 21v78h130v-77 q31 -6 57.5 -19.5t45.5 -34.5t29.5 -50.5t10.5 -67.5l-143 -9q1 14 -1.5 26.5t-10 22.5t-20.5 15.5t-33 5.5q-35 0 -48.5 -13.5t-13.5 -26.5q0 -9 3.5 -16.5t13.5 -14t28 -14t47 -17.5q96 -32 141.5 -80t45.5 -112q0 -67 -40 -111t-112 -58v-76h-130z" />
<glyph unicode="%" horiz-adv-x="922" d="M73 0zM225 331q-70 0 -111 52.5t-41 158.5q0 104 41 156t111 52q69 0 110.5 -52t41.5 -156q0 -106 -41.5 -158.5t-110.5 -52.5zM225 420q27 0 43 26t16 96q0 69 -16 94t-43 25q-28 0 -43.5 -25t-15.5 -94q0 -70 15.5 -96t43.5 -26zM118 0l573 727h119l-576 -727h-116z M698 -18q-70 0 -111 52.5t-41 158.5q0 104 41 156t111 52q69 0 110.5 -52t41.5 -156q0 -106 -41.5 -158.5t-110.5 -52.5zM698 71q27 0 43 26t16 96q0 69 -16 94t-43 25q-28 0 -43.5 -25t-15.5 -94q0 -70 15.5 -96t43.5 -26z" />
<glyph unicode="&#x26;" horiz-adv-x="737" d="M550 0l-46 51q-49 -35 -104 -50.5t-110 -15.5q-69 0 -118.5 15t-81 42t-46.5 64t-15 80t12.5 75.5t33 57t47.5 43.5t56 36q-35 39 -55 79.5t-20 82.5q0 51 19 85.5t49.5 56t69.5 31t80 9.5q45 0 85 -12t70 -34t47.5 -53t17.5 -68q0 -35 -12 -65t-32 -54.5t-46.5 -45 t-56.5 -36.5l92 -107h5q10 20 16.5 41.5t11.5 51.5h144q-10 -106 -66 -201l152 -159h-199zM259 313q-29 -11 -51.5 -38t-22.5 -63q0 -39 28.5 -64t79.5 -25q31 0 57.5 12.5t47.5 24.5zM320 453q40 23 58.5 46.5t18.5 54.5q0 23 -14 42t-54 19q-22 0 -36 -5t-22 -13t-11 -20 t-3 -25q0 -23 14 -44t49 -55z" />
<glyph unicode="'" horiz-adv-x="240" d="M66 406l-19 336h146l-22 -336h-105z" />
<glyph unicode="(" horiz-adv-x="386" d="M225 -181q-64 110 -95.5 229t-31.5 240t31.5 239.5t95.5 228.5h132q-74 -97 -109 -216t-35 -252t35 -252.5t109 -216.5h-132z" />
<glyph unicode=")" horiz-adv-x="384" d="M27 -181q74 97 109 216.5t35 252.5t-35 252t-109 216h132q64 -110 95.5 -228.5t31.5 -239.5t-31.5 -240t-95.5 -229h-132z" />
<glyph unicode="*" horiz-adv-x="551" d="M325 410l4 -163h-108l5 163l-139 -86l-51 89l143 81l-145 78l48 88l144 -84l-5 166h108l-4 -166l143 84l47 -88l-145 -78l143 -81l-50 -89z" />
<glyph unicode="+" horiz-adv-x="592" d="M234 99v198h-198v124h198v197h124v-197h197v-124h-197v-198h-124z" />
<glyph unicode="," horiz-adv-x="282" d="M71 -115l51 111l-3 4h-52v132h145v-132l-61 -115h-80z" />
<glyph unicode="-" horiz-adv-x="266" d="M27 299v143h212v-143h-212z" />
<glyph unicode="." horiz-adv-x="283" d="M69 0v132h145v-132h-145z" />
<glyph unicode="/" horiz-adv-x="428" d="M17 -97l275 853h119l-274 -853h-120z" />
<glyph unicode="0" horiz-adv-x="686" d="M343 -15q-62 0 -111.5 24t-85 71.5t-54.5 118.5t-19 166q0 94 19 164.5t54 117.5t85 71t112 24t112 -24t85.5 -71t54.5 -117.5t19 -164.5q0 -95 -19.5 -166t-54.5 -118.5t-85.5 -71.5t-111.5 -24zM343 130q28 0 50.5 11t38.5 38t24 72.5t8 113.5q0 67 -8 112t-24 72 t-38.5 38.5t-50.5 11.5q-29 0 -51 -11.5t-37.5 -38.5t-23.5 -72t-8 -112q0 -68 8 -113.5t23.5 -72.5t37.5 -38t51 -11z" />
<glyph unicode="1" horiz-adv-x="354" d="M134 0v515h-92v131h35q28 0 47.5 19.5t19.5 57.5v4h132v-727h-142z" />
<glyph unicode="2" horiz-adv-x="566" d="M57 0v69q0 100 25 176.5t88 123.5q20 15 41 26.5t40.5 21t37.5 18t33 17.5q25 16 34 32t9 37q0 30 -24 49.5t-59 19.5q-43 0 -70 -23.5t-41 -60.5l-115 98q16 31 38 56.5t51 43.5t66.5 28t85.5 10q45 0 84 -13.5t67.5 -39.5t45 -65.5t16.5 -90.5q0 -42 -9 -74t-27.5 -57 t-48.5 -45.5t-72 -39.5q-41 -18 -66.5 -37.5t-40.5 -40.5t-21.5 -44.5t-7.5 -50.5h288v-144h-448z" />
<glyph unicode="3" horiz-adv-x="583" d="M146 194q20 -29 47 -46t72 -17q48 0 78 29t30 76q0 52 -31 85t-87 33q-22 0 -37.5 -1.5t-26.5 -3.5l-23 93l142 137l-1 6h-232v142h402v-157l-111 -106q25 -6 53 -22t52 -43t40 -64.5t16 -87.5q0 -64 -20 -113t-55 -82t-83.5 -50t-106.5 -17q-66 0 -125 24.5t-95 75.5z " />
<glyph unicode="4" horiz-adv-x="597" d="M340 0v135h-297v137l144 455h152l-141 -453h142v221h141v-221h75v-139h-75v-135h-141z" />
<glyph unicode="5" horiz-adv-x="589" d="M140 187q22 -28 56.5 -42t77.5 -14q49 0 84 31.5t35 94.5q0 36 -9 60.5t-25 40t-37.5 22t-46.5 6.5q-32 0 -52.5 -11.5t-29.5 -22.5l-134 32l33 343h397v-144h-271l-10 -85q22 11 42.5 14t40.5 3q54 0 99 -16.5t77.5 -48.5t51 -80.5t18.5 -112.5q0 -66 -19.5 -116.5 t-55 -85t-86 -52.5t-111.5 -18q-72 0 -124 24t-91 62z" />
<glyph unicode="6" horiz-adv-x="590" d="M411 210q0 42 -28 66t-81 24t-80.5 -24t-27.5 -66t28.5 -62t80.5 -20t80 20t28 62zM216 407q45 25 107 25q43 0 83.5 -12.5t71.5 -38.5t50 -65t19 -93t-17.5 -98t-49.5 -75t-77 -48t-101 -17q-123 0 -189 74t-66 215q0 95 31.5 176t83.5 141.5t119.5 97.5t140.5 45 l29 -142q-49 -9 -91 -28.5t-73.5 -44.5t-51.5 -53.5t-24 -55.5z" />
<glyph unicode="7" horiz-adv-x="536" d="M135 0l203 583h-314v144h472v-149l-193 -578h-168z" />
<glyph unicode="8" horiz-adv-x="600" d="M461 395q16 -10 33.5 -24t31 -35t22.5 -49.5t9 -67.5q0 -52 -18 -95t-51.5 -74t-81 -48t-106.5 -17t-106.5 17t-81 48t-51.5 74t-18 95q0 39 8.5 68.5t22.5 51t31 35t34 21.5q-22 16 -43.5 53t-21.5 95q0 43 15 79.5t44 63t71 41.5t96 15q53 0 95 -15t71 -41.5t44 -63 t15 -79.5q0 -58 -19 -93t-45 -55zM409 220q0 47 -30 69.5t-79 22.5q-51 0 -80.5 -23t-29.5 -69q0 -47 30.5 -67.5t79.5 -20.5q48 0 78.5 20.5t30.5 67.5zM392 525q0 42 -25 60.5t-67 18.5q-43 0 -68 -18.5t-25 -60.5q0 -38 25.5 -57t67.5 -19t67 19t25 57z" />
<glyph unicode="9" horiz-adv-x="591" d="M399 506q0 46 -29.5 70t-77.5 24t-78.5 -24t-30.5 -70t30.5 -73t78.5 -27t77.5 27t29.5 73zM210 109q77 44 119.5 97t55.5 98l-5 3q-20 -14 -46 -20t-55 -6q-48 0 -91 14.5t-74.5 43.5t-50 71t-18.5 98q0 52 18 95t50.5 74t78 48t101.5 17q61 0 108.5 -19.5t80.5 -55.5 t50.5 -88t17.5 -118q0 -102 -25 -179.5t-63.5 -135t-85.5 -97t-91 -64.5z" />
<glyph unicode=":" horiz-adv-x="283" d="M69 0v132h144v-132h-144zM69 415v132h144v-132h-144z" />
<glyph unicode=";" horiz-adv-x="282" d="M71 -115l51 111l-3 4h-52v132h145v-132l-61 -115h-80zM67 415v132h145v-132h-145z" />
<glyph unicode="&#x3c;" horiz-adv-x="592" d="M36 297v124l519 192v-126l-369 -129l369 -127v-126z" />
<glyph unicode="=" horiz-adv-x="592" d="M36 448v125h519v-125h-519zM36 144v125h519v-125h-519z" />
<glyph unicode="&#x3e;" horiz-adv-x="592" d="M36 105v126l368 127l-368 129v126l519 -192v-124z" />
<glyph unicode="?" horiz-adv-x="491" d="M154 203v21q0 68 17 121.5t64 94.5q21 18 33.5 30.5t19 22.5t9 19.5t2.5 20.5q0 29 -22.5 44.5t-49.5 15.5q-31 0 -53 -19t-33 -45l-120 84q12 25 30 48.5t44.5 41.5t61 28.5t79.5 10.5q40 0 78.5 -10t69.5 -33t50 -60.5t19 -93.5q0 -36 -10 -64.5t-26 -52t-36.5 -44 l-41.5 -41.5q-13 -13 -21 -25.5t-12 -28t-5.5 -36t-1.5 -50.5h-145zM153 0v132h146v-132h-146z" />
<glyph unicode="@" horiz-adv-x="866" d="M408 -211q-86 10 -153.5 42.5t-114.5 87.5t-72 131.5t-25 175.5q0 106 33 186.5t88.5 135t129.5 82t155 27.5t149.5 -23t119 -66t78.5 -106t28 -142q0 -64 -16 -112t-44.5 -80t-66.5 -48t-82 -16q-41 0 -65 15t-34 29q-11 -13 -37 -29t-67 -16q-25 0 -47.5 11.5t-39.5 33 t-27 52.5t-10 69q0 46 11 78t29 52.5t41.5 29.5t49.5 9q28 0 46 -6.5t27 -14.5v18h89v-217q4 -10 12 -13t22 -3q10 0 24 5.5t26.5 22t21 45t8.5 75.5q0 113 -65 174t-178 61q-71 0 -123 -24.5t-86.5 -67.5t-51.5 -100.5t-17 -124.5q0 -82 18 -138.5t51.5 -93.5t80.5 -59 t104 -35zM473 306q-5 4 -12.5 6t-21.5 2q-27 0 -40 -21t-13 -56q0 -36 13 -58t42 -22q13 0 21 4t11 9v136z" />
<glyph unicode="A" d="M457 0l-32 112h-226l-31 -112h-157l210 727h185l208 -727h-157zM313 507h-5l-71 -255h148z" />
<glyph unicode="B" horiz-adv-x="592" d="M66 0v727h270q40 0 76 -13.5t63.5 -39t43.5 -64t16 -87.5q0 -44 -16 -78t-39 -54q15 -9 29.5 -23t25.5 -34t18 -46t7 -60q0 -109 -63.5 -168.5t-184.5 -59.5h-246zM334 142q33 0 50.5 23t17.5 61q0 37 -17.5 59t-51.5 22h-122v-165h123zM328 435q29 0 47 20t18 58 q0 35 -18 53.5t-44 18.5h-120v-150h117z" />
<glyph unicode="C" horiz-adv-x="662" d="M619 228q-6 -54 -27 -98.5t-55 -76.5t-79 -50t-99 -18q-67 0 -122.5 22t-95.5 68t-62.5 117.5t-22.5 171.5q0 99 22.5 170.5t62.5 117.5t95.5 68t122.5 22q54 0 99 -17.5t79.5 -49.5t55.5 -76.5t27 -98.5l-143 -15q-21 101 -129 101q-67 0 -105.5 -53t-38.5 -169 q0 -117 38.5 -170t105.5 -53q104 0 128 101z" />
<glyph unicode="D" horiz-adv-x="671" d="M66 0v727h244q90 0 150.5 -28t97 -76.5t51.5 -115t15 -143.5q0 -78 -15 -144.5t-51.5 -115t-97 -76.5t-150.5 -28h-244zM301 144q46 0 79 9t54.5 33.5t31.5 67.5t10 110q0 66 -10 108.5t-31.5 67t-54.5 34t-79 9.5h-90v-439h90z" />
<glyph unicode="E" horiz-adv-x="528" d="M66 0v727h401v-144h-256v-140h252v-141h-252v-158h256v-144h-401z" />
<glyph unicode="F" horiz-adv-x="501" d="M66 0v727h406v-144h-261v-139h252v-143h-252v-301h-145z" />
<glyph unicode="G" horiz-adv-x="691" d="M383 236v144h264q1 -11 1.5 -28t0.5 -35q0 -64 -14 -123.5t-47.5 -106t-89 -74.5t-137.5 -28q-64 0 -119.5 22t-97 68t-65 117.5t-23.5 171.5q0 99 24 170.5t66 117.5t99.5 68t125.5 22q49 0 92.5 -14.5t78 -40.5t58 -63t33.5 -82l-140 -25q-14 35 -49 56.5t-86 21.5 q-69 0 -113.5 -55.5t-44.5 -175.5q0 -121 45.5 -176.5t121.5 -55.5q60 0 95 26.5t40 77.5h-119z" />
<glyph unicode="H" horiz-adv-x="670" d="M460 0v301h-249v-301h-145v727h145v-283h249v283h144v-727h-144z" />
<glyph unicode="I" horiz-adv-x="285" d="M70 0v727h146v-727h-146z" />
<glyph unicode="J" horiz-adv-x="534" d="M326 727h146v-467q0 -130 -62 -202.5t-193 -72.5q-63 0 -110.5 20t-85.5 62l95 110q20 -26 42 -39t61 -13q51 0 79 30.5t28 104.5v467z" />
<glyph unicode="K" horiz-adv-x="608" d="M411 0l-178 329h-22v-329h-145v727h145v-276h20l179 276h177l-225 -329l238 -398h-189z" />
<glyph unicode="L" horiz-adv-x="558" d="M66 0v727h145v-583h323v-144h-468z" />
<glyph unicode="M" horiz-adv-x="747" d="M537 0v431h-5l-100 -294h-122l-94 294h-6v-431h-144v727h191l118 -371h5l121 371h180v-727h-144z" />
<glyph unicode="N" horiz-adv-x="671" d="M464 0l-251 464h-6v-464h-141v727h171l221 -437h6v437h141v-727h-141z" />
<glyph unicode="O" horiz-adv-x="708" d="M354 -15q-64 0 -118.5 26t-94.5 75t-62.5 119t-22.5 159q0 88 22.5 158t62.5 119t94.5 75t118.5 26t118.5 -26t94.5 -75t62.5 -119t22.5 -158q0 -89 -22.5 -159t-62.5 -119t-94.5 -75t-118.5 -26zM354 141q33 0 61.5 13.5t49.5 41t32.5 69.5t11.5 99t-11.5 99t-32.5 69 t-49.5 40.5t-61.5 13.5t-61.5 -13.5t-49.5 -40.5t-32.5 -69t-11.5 -99t11.5 -99t32.5 -69.5t49.5 -41t61.5 -13.5z" />
<glyph unicode="P" horiz-adv-x="603" d="M347 411q44 0 63.5 21t19.5 63t-19.5 66t-64.5 24h-135v-174h136zM66 0v727h283q51 0 92.5 -15.5t71 -45t45.5 -71.5t16 -94q0 -111 -62.5 -169t-173.5 -58h-127v-274h-145z" />
<glyph unicode="Q" horiz-adv-x="708" d="M466 -87l-45 95q-35 -8 -67 -8q-64 0 -118.5 25.5t-94.5 73.5t-62.5 116.5t-22.5 155.5t22.5 155.5t62.5 116.5t94.5 73.5t118.5 25.5t118.5 -25.5t94.5 -73.5t62.5 -116.5t22.5 -155.5q0 -106 -32.5 -183.5t-88.5 -124.5l47 -90zM297 252l114 61l53 -116q21 28 33 69.5 t12 98.5t-11.5 98.5t-32.5 68.5t-49.5 40.5t-61.5 13.5t-61.5 -13.5t-49.5 -40.5t-32.5 -68.5t-11.5 -98.5q0 -56 11.5 -97.5t32.5 -69t49 -41t61 -13.5z" />
<glyph unicode="R" horiz-adv-x="610" d="M424 0q-7 11 -7 34v159q0 42 -16.5 61t-58.5 19h-131v-273h-145v727h268q106 0 163 -58.5t57 -160.5q0 -65 -21.5 -102t-46.5 -51q14 -6 27.5 -17t24.5 -28.5t18 -42.5t7 -59v-171q0 -23 7 -37h-146zM326 408q45 0 65 25.5t20 63.5t-19.5 62t-63.5 24h-117v-175h115z" />
<glyph unicode="S" horiz-adv-x="566" d="M367 516q0 19 -4 35.5t-13.5 29t-26 19.5t-41.5 7q-43 0 -62.5 -19t-19.5 -45q0 -15 4 -27.5t14.5 -23t29.5 -20.5t49 -20q62 -22 107.5 -48t70.5 -56q24 -29 34.5 -64t10.5 -77q0 -51 -17 -92t-47.5 -70t-74 -44.5t-95.5 -15.5q-47 0 -90 13t-76.5 39t-55.5 65t-27 91 l145 38q2 -18 7 -36.5t15.5 -33.5t28.5 -24.5t47 -9.5q42 0 65.5 22t23.5 61q0 30 -23.5 54t-76.5 44q-49 18 -86 37.5t-66 45.5q-31 28 -45.5 64t-14.5 93q0 46 19 82.5t50.5 61t73 37.5t85.5 13q47 0 88 -12t71 -37.5t47 -66t17 -97.5z" />
<glyph unicode="T" horiz-adv-x="569" d="M208 0v583h-181v144h515v-144h-179v-583h-155z" />
<glyph unicode="U" horiz-adv-x="634" d="M426 727h146v-468q0 -77 -16.5 -129t-48.5 -84.5t-79 -46.5t-107 -14q-62 0 -110 14t-81 46t-50.5 83.5t-17.5 126.5v472h144v-480q0 -36 7.5 -59t22 -36.5t36 -18.5t49.5 -5q26 0 45.5 5t33 18.5t20 36.5t6.5 59v480z" />
<glyph unicode="V" d="M219 0l-208 727h157l143 -507h4l142 507h157l-210 -727h-185z" />
<glyph unicode="W" horiz-adv-x="924" d="M555 0l-90 419h-4l-97 -419h-194l-157 727h165l93 -498h4l110 498h157l107 -498h4l93 498h166l-163 -727h-194z" />
<glyph unicode="X" horiz-adv-x="613" d="M417 0l-114 236l-113 -236h-173l201 367l-201 360h178l117 -233l120 233h163l-197 -361l197 -366h-178z" />
<glyph unicode="Y" horiz-adv-x="596" d="M219 0v272l-210 455h162l125 -292h4l126 292h161l-208 -453v-274h-160z" />
<glyph unicode="Z" horiz-adv-x="603" d="M47 0v150l310 429v4h-310v144h509v-133l-317 -446v-4h318v-144h-510z" />
<glyph unicode="[" horiz-adv-x="365" d="M108 -181v937h227v-114h-122v-708h122v-115h-227z" />
<glyph unicode="\" horiz-adv-x="428" d="M292 -97l-275 853h120l274 -853h-119z" />
<glyph unicode="]" horiz-adv-x="365" d="M30 -181v115h123v708h-123v114h227v-937h-227z" />
<glyph unicode="^" horiz-adv-x="595" d="M426 215l-129 361l-128 -361h-124l190 512h124l192 -512h-125z" />
<glyph unicode="_" horiz-adv-x="602" d="M5 -109v124h592v-124h-592z" />
<glyph unicode="`" horiz-adv-x="354" d="M46 707l62 96l201 -145l-50 -74z" />
<glyph unicode="a" d="M11 0zM457 0l-32 112h-226l-31 -112h-157l210 727h185l208 -727h-157zM313 507h-5l-71 -255h148z" />
<glyph unicode="b" horiz-adv-x="592" d="M66 0zM66 0v727h270q40 0 76 -13.5t63.5 -39t43.5 -64t16 -87.5q0 -44 -16 -78t-39 -54q15 -9 29.5 -23t25.5 -34t18 -46t7 -60q0 -109 -63.5 -168.5t-184.5 -59.5h-246zM334 142q33 0 50.5 23t17.5 61q0 37 -17.5 59t-51.5 22h-122v-165h123zM328 435q29 0 47 20t18 58 q0 35 -18 53.5t-44 18.5h-120v-150h117z" />
<glyph unicode="c" horiz-adv-x="662" d="M56 0zM619 228q-6 -54 -27 -98.5t-55 -76.5t-79 -50t-99 -18q-67 0 -122.5 22t-95.5 68t-62.5 117.5t-22.5 171.5q0 99 22.5 170.5t62.5 117.5t95.5 68t122.5 22q54 0 99 -17.5t79.5 -49.5t55.5 -76.5t27 -98.5l-143 -15q-21 101 -129 101q-67 0 -105.5 -53t-38.5 -169 q0 -117 38.5 -170t105.5 -53q104 0 128 101z" />
<glyph unicode="d" horiz-adv-x="671" d="M66 0zM66 0v727h244q90 0 150.5 -28t97 -76.5t51.5 -115t15 -143.5q0 -78 -15 -144.5t-51.5 -115t-97 -76.5t-150.5 -28h-244zM301 144q46 0 79 9t54.5 33.5t31.5 67.5t10 110q0 66 -10 108.5t-31.5 67t-54.5 34t-79 9.5h-90v-439h90z" />
<glyph unicode="e" horiz-adv-x="528" d="M66 0zM66 0v727h401v-144h-256v-140h252v-141h-252v-158h256v-144h-401z" />
<glyph unicode="f" horiz-adv-x="501" d="M66 0zM66 0v727h406v-144h-261v-139h252v-143h-252v-301h-145z" />
<glyph unicode="g" horiz-adv-x="691" d="M56 0zM383 236v144h264q1 -11 1.5 -28t0.5 -35q0 -64 -14 -123.5t-47.5 -106t-89 -74.5t-137.5 -28q-64 0 -119.5 22t-97 68t-65 117.5t-23.5 171.5q0 99 24 170.5t66 117.5t99.5 68t125.5 22q49 0 92.5 -14.5t78 -40.5t58 -63t33.5 -82l-140 -25q-14 35 -49 56.5 t-86 21.5q-69 0 -113.5 -55.5t-44.5 -175.5q0 -121 45.5 -176.5t121.5 -55.5q60 0 95 26.5t40 77.5h-119z" />
<glyph unicode="h" horiz-adv-x="670" d="M66 0zM460 0v301h-249v-301h-145v727h145v-283h249v283h144v-727h-144z" />
<glyph unicode="i" horiz-adv-x="285" d="M70 0zM70 0v727h146v-727h-146z" />
<glyph unicode="j" horiz-adv-x="534" d="M21 0zM326 727h146v-467q0 -130 -62 -202.5t-193 -72.5q-63 0 -110.5 20t-85.5 62l95 110q20 -26 42 -39t61 -13q51 0 79 30.5t28 104.5v467z" />
<glyph unicode="k" horiz-adv-x="608" d="M66 0zM411 0l-178 329h-22v-329h-145v727h145v-276h20l179 276h177l-225 -329l238 -398h-189z" />
<glyph unicode="l" horiz-adv-x="558" d="M66 0zM66 0v727h145v-583h323v-144h-468z" />
<glyph unicode="m" horiz-adv-x="747" d="M66 0zM537 0v431h-5l-100 -294h-122l-94 294h-6v-431h-144v727h191l118 -371h5l121 371h180v-727h-144z" />
<glyph unicode="n" horiz-adv-x="671" d="M66 0zM464 0l-251 464h-6v-464h-141v727h171l221 -437h6v437h141v-727h-141z" />
<glyph unicode="o" horiz-adv-x="708" d="M56 0zM354 -15q-64 0 -118.5 26t-94.5 75t-62.5 119t-22.5 159q0 88 22.5 158t62.5 119t94.5 75t118.5 26t118.5 -26t94.5 -75t62.5 -119t22.5 -158q0 -89 -22.5 -159t-62.5 -119t-94.5 -75t-118.5 -26zM354 141q33 0 61.5 13.5t49.5 41t32.5 69.5t11.5 99t-11.5 99 t-32.5 69t-49.5 40.5t-61.5 13.5t-61.5 -13.5t-49.5 -40.5t-32.5 -69t-11.5 -99t11.5 -99t32.5 -69.5t49.5 -41t61.5 -13.5z" />
<glyph unicode="p" horiz-adv-x="603" d="M66 0zM347 411q44 0 63.5 21t19.5 63t-19.5 66t-64.5 24h-135v-174h136zM66 0v727h283q51 0 92.5 -15.5t71 -45t45.5 -71.5t16 -94q0 -111 -62.5 -169t-173.5 -58h-127v-274h-145z" />
<glyph unicode="q" horiz-adv-x="708" d="M56 0zM466 -87l-45 95q-35 -8 -67 -8q-64 0 -118.5 25.5t-94.5 73.5t-62.5 116.5t-22.5 155.5t22.5 155.5t62.5 116.5t94.5 73.5t118.5 25.5t118.5 -25.5t94.5 -73.5t62.5 -116.5t22.5 -155.5q0 -106 -32.5 -183.5t-88.5 -124.5l47 -90zM297 252l114 61l53 -116 q21 28 33 69.5t12 98.5t-11.5 98.5t-32.5 68.5t-49.5 40.5t-61.5 13.5t-61.5 -13.5t-49.5 -40.5t-32.5 -68.5t-11.5 -98.5q0 -56 11.5 -97.5t32.5 -69t49 -41t61 -13.5z" />
<glyph unicode="r" horiz-adv-x="610" d="M66 0zM424 0q-7 11 -7 34v159q0 42 -16.5 61t-58.5 19h-131v-273h-145v727h268q106 0 163 -58.5t57 -160.5q0 -65 -21.5 -102t-46.5 -51q14 -6 27.5 -17t24.5 -28.5t18 -42.5t7 -59v-171q0 -23 7 -37h-146zM326 408q45 0 65 25.5t20 63.5t-19.5 62t-63.5 24h-117v-175 h115z" />
<glyph unicode="s" horiz-adv-x="566" d="M37 0zM367 516q0 19 -4 35.5t-13.5 29t-26 19.5t-41.5 7q-43 0 -62.5 -19t-19.5 -45q0 -15 4 -27.5t14.5 -23t29.5 -20.5t49 -20q62 -22 107.5 -48t70.5 -56q24 -29 34.5 -64t10.5 -77q0 -51 -17 -92t-47.5 -70t-74 -44.5t-95.5 -15.5q-47 0 -90 13t-76.5 39t-55.5 65 t-27 91l145 38q2 -18 7 -36.5t15.5 -33.5t28.5 -24.5t47 -9.5q42 0 65.5 22t23.5 61q0 30 -23.5 54t-76.5 44q-49 18 -86 37.5t-66 45.5q-31 28 -45.5 64t-14.5 93q0 46 19 82.5t50.5 61t73 37.5t85.5 13q47 0 88 -12t71 -37.5t47 -66t17 -97.5z" />
<glyph unicode="t" horiz-adv-x="569" d="M27 0zM208 0v583h-181v144h515v-144h-179v-583h-155z" />
<glyph unicode="u" horiz-adv-x="634" d="M62 0zM426 727h146v-468q0 -77 -16.5 -129t-48.5 -84.5t-79 -46.5t-107 -14q-62 0 -110 14t-81 46t-50.5 83.5t-17.5 126.5v472h144v-480q0 -36 7.5 -59t22 -36.5t36 -18.5t49.5 -5q26 0 45.5 5t33 18.5t20 36.5t6.5 59v480z" />
<glyph unicode="v" d="M11 0zM219 0l-208 727h157l143 -507h4l142 507h157l-210 -727h-185z" />
<glyph unicode="w" horiz-adv-x="924" d="M13 0zM555 0l-90 419h-4l-97 -419h-194l-157 727h165l93 -498h4l110 498h157l107 -498h4l93 498h166l-163 -727h-194z" />
<glyph unicode="x" horiz-adv-x="613" d="M17 0zM417 0l-114 236l-113 -236h-173l201 367l-201 360h178l117 -233l120 233h163l-197 -361l197 -366h-178z" />
<glyph unicode="y" horiz-adv-x="596" d="M9 0zM219 0v272l-210 455h162l125 -292h4l126 292h161l-208 -453v-274h-160z" />
<glyph unicode="z" horiz-adv-x="603" d="M47 0zM47 0v150l310 429v4h-310v144h509v-133l-317 -446v-4h318v-144h-510z" />
<glyph unicode="{" horiz-adv-x="504" d="M400 -179q-100 0 -143.5 46t-43.5 141v58q0 88 -38.5 126t-125.5 40v113q87 2 125.5 39.5t38.5 126.5v58q0 96 43.5 141.5t143.5 45.5h86v-106h-63q-42 0 -62 -19.5t-20 -67.5v-76q0 -61 -23 -112.5t-85 -85.5q62 -36 85 -88t23 -111v-76q0 -48 20 -67.5t62 -19.5h63 v-106h-86z" />
<glyph unicode="|" horiz-adv-x="311" d="M103 -181v937h104v-937h-104z" />
<glyph unicode="}" horiz-adv-x="504" d="M18 -179v106h63q42 0 62 19.5t20 67.5v76q0 60 23 111.5t86 87.5q-63 34 -86 85.5t-23 112.5v76q0 48 -20 67.5t-62 19.5h-63v106h86q100 0 143.5 -45.5t43.5 -141.5v-58q0 -89 38.5 -126.5t125.5 -39.5v-113q-87 -2 -125.5 -40t-38.5 -126v-58q0 -95 -43.5 -141 t-143.5 -46h-86z" />
<glyph unicode="~" horiz-adv-x="592" d="M556 374q-29 -55 -73.5 -83.5t-90.5 -28.5q-36 0 -64 13t-51.5 28.5t-44.5 28.5t-43 13q-20 0 -38.5 -18t-34.5 -46l-88 65q31 54 73.5 79.5t88.5 25.5q41 0 70 -13t51.5 -28t41.5 -28t39 -13q23 0 42 19t34 49z" />
<glyph unicode="&#xa1;" horiz-adv-x="305" d="M195 513l39 -333v-180h-164v180l41 333h84zM225 727v-132h-146v132h146z" />
<glyph unicode="&#xa2;" horiz-adv-x="592" d="M240 0v82q-92 19 -144 87.5t-52 196.5q0 127 52 195t144 88v78h128v-76q81 -12 128.5 -65t54.5 -129l-140 -13q-10 37 -34 58t-69 21q-57 0 -86.5 -37.5t-29.5 -119.5q0 -84 29.5 -121t86.5 -37q44 0 68 21.5t33 58.5l141 -14q-4 -39 -17.5 -72t-37 -58.5t-55.5 -42 t-72 -22.5v-79h-128z" />
<glyph unicode="&#xa3;" horiz-adv-x="564" d="M43 0v144q52 4 74.5 33.5t27.5 74.5h-76v127h64q-7 18 -15 34.5t-14.5 36t-11 44.5t-4.5 59q0 36 14.5 70.5t43.5 60.5t72.5 42t102.5 16q36 0 67.5 -9t56 -25t42 -36.5t25.5 -44.5l-118 -87q-5 9 -11 19t-16 17.5t-24.5 12.5t-35.5 5q-65 0 -65 -70q0 -41 13.5 -74.5 t24.5 -70.5h168v-127h-161q-5 -23 -13.5 -40.5t-17.5 -29.5t-17 -20.5t-12 -13.5l1 -4h293v-144h-478z" />
<glyph unicode="&#xa4;" horiz-adv-x="596" d="M487 92l-91 90q-20 -12 -44.5 -18t-51.5 -6q-29 0 -54 6.5t-48 18.5l-90 -91l-80 79l97 96q-9 20 -13 43t-4 49q0 52 17 92l-96 95l79 80l89 -91q46 26 103 26q55 0 97 -25l90 90l79 -80l-97 -97q15 -41 15 -90q0 -25 -4 -47t-11 -43l98 -98zM297 259q34 0 56.5 24.5 t22.5 75.5q0 52 -22.5 76.5t-56.5 24.5t-56.5 -24.5t-22.5 -76.5q0 -51 22.5 -75.5t56.5 -24.5z" />
<glyph unicode="&#xa5;" horiz-adv-x="658" d="M410 62v-62h-160v62h-161v118h161v71h-161v119h152l-200 357h177l112 -228l114 228h175l-204 -357h142v-119h-147v-71h147v-118h-147z" />
<glyph unicode="&#xa6;" horiz-adv-x="311" d="M103 407v349h104v-349h-104zM103 -181v349h104v-349h-104z" />
<glyph unicode="&#xa7;" horiz-adv-x="594" d="M193 16q4 -14 10 -28.5t16 -25.5t25.5 -18t38.5 -7q48 0 73.5 20.5t25.5 53.5q0 29 -24.5 50.5t-84.5 32.5q-48 8 -91 21t-75.5 36t-51.5 58t-19 87q0 42 21.5 75.5t56.5 56.5q-26 22 -40.5 54t-14.5 80q0 42 19 75.5t50 57t70.5 35.5t81.5 12q103 0 162.5 -37.5 t69.5 -124.5l-140 -28q-3 29 -20 49.5t-56 20.5q-50 0 -72 -19t-22 -41q0 -15 4.5 -26t16.5 -19.5t32.5 -15t52.5 -12.5q69 -12 116.5 -30t77 -44t42.5 -60t13 -78q0 -45 -19.5 -78t-54.5 -55q27 -26 39 -58.5t12 -74.5q0 -43 -17 -79.5t-49.5 -63t-80 -41.5t-109.5 -15 q-41 0 -77.5 10t-66.5 30t-51.5 49.5t-30.5 68.5zM263 366q-40 -6 -62 -28t-22 -42q0 -15 4.5 -26t16.5 -19.5t32.5 -15t52.5 -12.5q17 -3 33.5 -6.5t31.5 -7.5q55 17 55 68q0 29 -24.5 50.5t-84.5 32.5z" />
<glyph unicode="&#xa8;" horiz-adv-x="444" d="M35 644v132h146v-132h-146zM263 644v132h146v-132h-146z" />
<glyph unicode="&#xa9;" horiz-adv-x="813" d="M406 -10q-75 0 -141 29.5t-115 80t-77.5 118.5t-28.5 146q0 77 28.5 145t77.5 118.5t115 80t141 29.5t141 -29.5t115.5 -80t78.5 -118.5t29 -145q0 -78 -29 -146t-78.5 -118.5t-115.5 -80t-141 -29.5zM688 364q0 58 -22 109.5t-60.5 89t-90 59.5t-109.5 22t-109 -22 t-89.5 -59.5t-60.5 -89t-22 -109.5t22 -109t60.5 -89t89.5 -60t109 -22t109.5 22t90 60t60.5 89t22 109zM555 291q-3 -31 -14.5 -56.5t-31 -44t-45 -29t-55.5 -10.5q-38 0 -70 12.5t-55 39.5t-35.5 68t-12.5 98t12.5 98t35.5 67.5t55 39t70 12.5q30 0 55.5 -10t45 -28.5 t31.5 -44t15 -55.5l-81 -10q-7 28 -25 43.5t-48 15.5q-38 0 -59.5 -30.5t-21.5 -97.5q0 -68 21.5 -98t59.5 -30q30 0 47 15t25 44z" />
<glyph unicode="&#xaa;" horiz-adv-x="323" d="M298 393q-7 -4 -17.5 -6.5t-27.5 -2.5q-16 0 -26.5 6t-19.5 15q-11 -11 -32 -17t-39 -6q-45 0 -77 29t-32 85q0 48 32 69.5t77 21.5q18 0 31.5 -1.5t21.5 -3.5v10q0 16 -12.5 25t-31.5 9q-13 0 -25 -8.5t-20 -21.5l-68 54q14 25 42 45t71 20q62 0 97 -33.5t35 -92.5v-106 q0 -9 4.5 -12t12.5 -3zM188 513q-5 2 -14.5 3.5t-20.5 1.5q-17 0 -27.5 -6.5t-10.5 -19.5q0 -12 10.5 -18.5t27.5 -6.5q23 0 35 14v32z" />
<glyph unicode="&#xab;" horiz-adv-x="518" d="M21 199zM209 199l-188 185l188 187l63 -58l-103 -129l103 -128zM433 199l-188 185l188 187l63 -58l-103 -129l103 -128z" />
<glyph unicode="&#xac;" horiz-adv-x="598" d="M435 0v295h-399v124h525v-419h-126z" />
<glyph unicode="&#xae;" horiz-adv-x="813" d="M406 -10q-75 0 -141 29.5t-115 80t-77.5 118.5t-28.5 146q0 77 28.5 145t77.5 118.5t115 80t141 29.5t141 -29.5t115.5 -80t78.5 -118.5t29 -145q0 -78 -29 -146t-78.5 -118.5t-115.5 -80t-141 -29.5zM688 364q0 58 -22 109.5t-60.5 89t-90 59.5t-109.5 22t-109 -22 t-89.5 -59.5t-60.5 -89t-22 -109.5t22 -109t60.5 -89t89.5 -60t109 -22t109.5 22t90 60t60.5 89t22 109zM474 160q-4 7 -4 18v93q0 46 -41 46h-75v-157h-83v417h152q60 0 92.5 -33t32.5 -91q0 -42 -10.5 -60t-27.5 -29q16 -8 29.5 -26.5t13.5 -58.5v-99q0 -11 6 -20h-85z M419 394q26 0 37 12.5t11 38.5t-11 38t-37 12h-65v-101h65z" />
<glyph unicode="&#xaf;" horiz-adv-x="381" d="M46 696v86h289v-86h-289z" />
<glyph unicode="&#xb0;" horiz-adv-x="436" d="M375 582q0 -32 -12.5 -60t-33.5 -49t-49.5 -33t-60.5 -12t-60.5 12t-49.5 33t-33.5 49t-12.5 60t12.5 60t33.5 49t49.5 33.5t60.5 12.5t60.5 -12.5t49.5 -33.5t33.5 -49t12.5 -60zM290 581q0 30 -21 50.5t-50 20.5q-31 0 -51.5 -21t-20.5 -50t20.5 -49.5t51.5 -20.5 q29 0 50 20.5t21 49.5z" />
<glyph unicode="&#xb1;" horiz-adv-x="592" d="M36 0zM234 99v198h-198v124h198v197h124v-197h197v-124h-197v-198h-124zM36 -103v124h519v-124h-519z" />
<glyph unicode="&#xb2;" horiz-adv-x="341" d="M39 339zM41 339v43q0 75 28.5 122t88.5 74q28 13 39 23.5t11 24.5t-11.5 22t-28.5 8q-20 0 -34 -13.5t-22 -36.5l-73 62q20 38 51.5 60t85.5 22q51 0 86 -29.5t35 -88.5q0 -47 -20 -73.5t-68 -48.5q-20 -9 -33 -18t-21 -18.5t-11.5 -21t-4.5 -24.5h156v-89h-254z" />
<glyph unicode="&#xb3;" horiz-adv-x="351" d="M32 331zM96 458q12 -17 26.5 -27t37.5 -10t37 14.5t14 36.5q0 25 -15 41.5t-42 16.5q-26 0 -39 -4l-15 59l73 69h-121v88h228v-93l-55 -52q13 -6 27.5 -15.5t26.5 -24.5t20 -34.5t8 -44.5q0 -72 -41.5 -109.5t-106.5 -37.5q-37 0 -70.5 15t-56.5 45z" />
<glyph unicode="&#xb4;" horiz-adv-x="354" d="M93 584l-47 74l200 145l63 -96z" />
<glyph unicode="&#xb6;" horiz-adv-x="801" d="M580 -179v762h-94v-762h-146v455h-67q-53 0 -96 15t-74 43.5t-48 70.5t-17 97q0 52 16 93.5t45 71t70.5 45t91.5 15.5h465v-906h-146zM340 583h-75q-44 0 -63.5 -21t-19.5 -66q0 -38 19 -56.5t63 -18.5h76v162z" />
<glyph unicode="&#xb7;" horiz-adv-x="283" d="M69 307zM69 307v132h145v-132h-145z" />
<glyph unicode="&#xb8;" horiz-adv-x="245" d="M61 -236l42 83l-4 4h-51v123h145v-123l-51 -87h-81z" />
<glyph unicode="&#xb9;" horiz-adv-x="225" d="M33 339zM82 339v277h-49v82h24q14 0 22 11t8 33h84v-403h-89z" />
<glyph unicode="&#xba;" horiz-adv-x="346" d="M174 382q-57 0 -95 44t-38 123q0 39 10 69.5t28 52t42 33t53 11.5q57 0 92.5 -45t35.5 -121q0 -78 -35.5 -122.5t-92.5 -44.5zM171 473q21 0 34 18.5t13 57.5q0 38 -13 55.5t-34 17.5q-19 0 -33 -17.5t-14 -55.5t14 -57t33 -19z" />
<glyph unicode="&#xbb;" horiz-adv-x="518" d="M21 199zM84 199l-63 57l103 128l-103 129l63 58l188 -187zM308 199l-63 57l103 128l-103 129l63 58l188 -187z" />
<glyph unicode="&#xbc;" horiz-adv-x="905" d="M73 0zM142 339v277h-49v82h24q14 0 22 11t8 33h84v-403h-89zM73 0l573 727h119l-576 -727h-116zM705 -10v72h-160v83l79 248h94l-75 -243h62v118h88v-118h40v-88h-40v-72h-88z" />
<glyph unicode="&#xbd;" horiz-adv-x="900" d="M73 0zM142 339v277h-49v82h24q14 0 22 11t8 33h84v-403h-89zM73 0l573 727h119l-576 -727h-116zM572 -10v43q0 75 28.5 122t88.5 74q28 13 39 23.5t11 24.5t-11.5 22t-28.5 8q-20 0 -34 -13.5t-22 -36.5l-73 62q20 38 51.5 60t85.5 22q51 0 86 -29.5t35 -88.5 q0 -47 -20 -73.5t-68 -48.5q-20 -9 -33 -18t-21 -18.5t-11.5 -21t-4.5 -24.5h156v-89h-254z" />
<glyph unicode="&#xbe;" horiz-adv-x="992" d="M73 0zM137 458q12 -17 26.5 -27t37.5 -10t37 14.5t14 36.5q0 25 -15 41.5t-42 16.5q-26 0 -39 -4l-15 59l73 69h-121v88h228v-93l-55 -52q13 -6 27.5 -15.5t26.5 -24.5t20 -34.5t8 -44.5q0 -72 -41.5 -109.5t-106.5 -37.5q-37 0 -70.5 15t-56.5 45zM160 0l573 727h119 l-576 -727h-116zM792 -10v72h-160v83l79 248h94l-75 -243h62v118h88v-118h40v-88h-40v-72h-88z" />
<glyph unicode="&#xbf;" horiz-adv-x="491" d="M337 524v-21q0 -68 -17 -122t-64 -94q-21 -18 -33.5 -30.5t-19 -22.5t-9 -19.5t-2.5 -20.5q0 -29 22.5 -44.5t49.5 -15.5q31 0 53 19t33 45l120 -84q-12 -26 -30 -49t-44.5 -41t-61 -28.5t-79.5 -10.5q-40 0 -79 10t-69.5 33t-49.5 60.5t-19 93.5q0 36 10 64.5t26 52 t36.5 44l41.5 41.5q13 13 21 25.5t12 28t5.5 36t1.5 50.5h145zM338 727v-132h-146v132h146z" />
<glyph unicode="&#xc0;" d="M11 0zM457 0l-32 112h-226l-31 -112h-157l210 727h185l208 -727h-157zM313 507h-5l-71 -255h148zM151 868l62 96l201 -145l-50 -74z" />
<glyph unicode="&#xc1;" d="M11 0zM457 0l-32 112h-226l-31 -112h-157l210 727h185l208 -727h-157zM313 507h-5l-71 -255h148zM258 745l-47 74l200 145l63 -96z" />
<glyph unicode="&#xc2;" d="M11 0zM457 0l-32 112h-226l-31 -112h-157l210 727h185l208 -727h-157zM313 507h-5l-71 -255h148zM312 834l-111 -84l-50 55l161 159l161 -159l-51 -55z" />
<glyph unicode="&#xc3;" d="M11 0zM457 0l-32 112h-226l-31 -112h-157l210 727h185l208 -727h-157zM313 507h-5l-71 -255h148zM537 908q-7 -29 -21 -51.5t-32 -37.5t-38.5 -22.5t-41.5 -7.5q-29 0 -54.5 10t-55.5 36q-21 18 -36.5 28t-36.5 10q-26 0 -40.5 -19t-23.5 -60l-70 44q7 29 21 51.5 t32 37.5t38.5 22.5t41.5 7.5q29 0 51 -8t46 -28q29 -23 46.5 -35.5t39.5 -12.5q26 0 40.5 19t23.5 60z" />
<glyph unicode="&#xc4;" d="M11 0zM457 0l-32 112h-226l-31 -112h-157l210 727h185l208 -727h-157zM313 507h-5l-71 -255h148zM125 805v132h146v-132h-146zM353 805v132h146v-132h-146z" />
<glyph unicode="&#xc5;" d="M11 0zM457 0l-32 112h-226l-31 -112h-157l210 727h185l208 -727h-157zM313 507h-5l-71 -255h148zM312 742q-23 0 -43 9t-35 24t-23.5 35t-8.5 43t8.5 43t23.5 35t35 24t43 9t43 -9t35 -24t24 -35t9 -43t-9 -43t-24 -35t-35 -24t-43 -9zM351 853q0 17 -11 28t-28 11 t-28 -11t-11 -28t11 -28t28 -11t28 11t11 28z" />
<glyph unicode="&#xc6;" horiz-adv-x="869" d="M455 0l-17 112h-248l-30 -112h-149l210 727h587v-144h-292l20 -140h266v-141h-245l24 -158h227v-144h-353zM369 583h-51l-90 -331h190z" />
<glyph unicode="&#xc7;" horiz-adv-x="662" d="M56 0zM619 228q-6 -54 -27 -98.5t-55 -76.5t-79 -50t-99 -18q-67 0 -122.5 22t-95.5 68t-62.5 117.5t-22.5 171.5q0 99 22.5 170.5t62.5 117.5t95.5 68t122.5 22q54 0 99 -17.5t79.5 -49.5t55.5 -76.5t27 -98.5l-143 -15q-21 101 -129 101q-67 0 -105.5 -53t-38.5 -169 q0 -117 38.5 -170t105.5 -53q104 0 128 101zM291 -236l42 83l-4 4h-51v123h145v-123l-51 -87h-81z" />
<glyph unicode="&#xc8;" horiz-adv-x="528" d="M66 0zM66 0v727h401v-144h-256v-140h252v-141h-252v-158h256v-144h-401zM110 868l62 96l201 -145l-50 -74z" />
<glyph unicode="&#xc9;" horiz-adv-x="528" d="M66 0zM66 0v727h401v-144h-256v-140h252v-141h-252v-158h256v-144h-401zM229 745l-47 74l200 145l63 -96z" />
<glyph unicode="&#xca;" horiz-adv-x="528" d="M66 0zM66 0v727h401v-144h-256v-140h252v-141h-252v-158h256v-144h-401zM274 834l-111 -84l-50 55l161 159l161 -159l-51 -55z" />
<glyph unicode="&#xcb;" horiz-adv-x="528" d="M66 0zM66 0v727h401v-144h-256v-140h252v-141h-252v-158h256v-144h-401zM84 805v132h146v-132h-146zM312 805v132h146v-132h-146z" />
<glyph unicode="&#xcc;" horiz-adv-x="285" d="M0 0zM70 0v727h146v-727h-146zM-19 868l62 96l201 -145l-50 -74z" />
<glyph unicode="&#xcd;" horiz-adv-x="285" d="M41 0zM70 0v727h146v-727h-146zM88 745l-47 74l200 145l63 -96z" />
<glyph unicode="&#xce;" horiz-adv-x="285" d="M0 0zM70 0v727h146v-727h-146zM143 834l-111 -84l-50 55l161 159l161 -159l-51 -55z" />
<glyph unicode="&#xcf;" horiz-adv-x="285" d="M0 0zM70 0v727h146v-727h-146zM-44 805v132h146v-132h-146zM184 805v132h146v-132h-146z" />
<glyph unicode="&#xd0;" horiz-adv-x="672" d="M66 0v301h-61v143h61v283h244q90 0 150.5 -28t97 -76.5t51.5 -115t15 -143.5q0 -78 -15 -144.5t-51.5 -115t-97 -76.5t-150.5 -28h-244zM301 144q46 0 79.5 9t55 33.5t31.5 67.5t10 110q0 66 -10 108.5t-31.5 67t-55 34t-79.5 9.5h-90v-139h132v-143h-132v-157h90z" />
<glyph unicode="&#xd1;" horiz-adv-x="671" d="M66 0zM464 0l-251 464h-6v-464h-141v727h171l221 -437h6v437h141v-727h-141zM560 908q-7 -29 -21 -51.5t-32 -37.5t-38.5 -22.5t-41.5 -7.5q-29 0 -54.5 10t-55.5 36q-21 18 -36.5 28t-36.5 10q-26 0 -40.5 -19t-23.5 -60l-70 44q7 29 21 51.5t32 37.5t38.5 22.5 t41.5 7.5q29 0 51 -8t46 -28q29 -23 46.5 -35.5t39.5 -12.5q26 0 40.5 19t23.5 60z" />
<glyph unicode="&#xd2;" horiz-adv-x="708" d="M56 0zM354 -15q-64 0 -118.5 26t-94.5 75t-62.5 119t-22.5 159q0 88 22.5 158t62.5 119t94.5 75t118.5 26t118.5 -26t94.5 -75t62.5 -119t22.5 -158q0 -89 -22.5 -159t-62.5 -119t-94.5 -75t-118.5 -26zM354 141q33 0 61.5 13.5t49.5 41t32.5 69.5t11.5 99t-11.5 99 t-32.5 69t-49.5 40.5t-61.5 13.5t-61.5 -13.5t-49.5 -40.5t-32.5 -69t-11.5 -99t11.5 -99t32.5 -69.5t49.5 -41t61.5 -13.5zM192 868l62 96l201 -145l-50 -74z" />
<glyph unicode="&#xd3;" horiz-adv-x="708" d="M56 0zM354 -15q-64 0 -118.5 26t-94.5 75t-62.5 119t-22.5 159q0 88 22.5 158t62.5 119t94.5 75t118.5 26t118.5 -26t94.5 -75t62.5 -119t22.5 -158q0 -89 -22.5 -159t-62.5 -119t-94.5 -75t-118.5 -26zM354 141q33 0 61.5 13.5t49.5 41t32.5 69.5t11.5 99t-11.5 99 t-32.5 69t-49.5 40.5t-61.5 13.5t-61.5 -13.5t-49.5 -40.5t-32.5 -69t-11.5 -99t11.5 -99t32.5 -69.5t49.5 -41t61.5 -13.5zM299 745l-47 74l200 145l63 -96z" />
<glyph unicode="&#xd4;" horiz-adv-x="708" d="M56 0zM354 -15q-64 0 -118.5 26t-94.5 75t-62.5 119t-22.5 159q0 88 22.5 158t62.5 119t94.5 75t118.5 26t118.5 -26t94.5 -75t62.5 -119t22.5 -158q0 -89 -22.5 -159t-62.5 -119t-94.5 -75t-118.5 -26zM354 141q33 0 61.5 13.5t49.5 41t32.5 69.5t11.5 99t-11.5 99 t-32.5 69t-49.5 40.5t-61.5 13.5t-61.5 -13.5t-49.5 -40.5t-32.5 -69t-11.5 -99t11.5 -99t32.5 -69.5t49.5 -41t61.5 -13.5zM354 834l-111 -84l-50 55l161 159l161 -159l-51 -55z" />
<glyph unicode="&#xd5;" horiz-adv-x="708" d="M56 0zM354 -15q-64 0 -118.5 26t-94.5 75t-62.5 119t-22.5 159q0 88 22.5 158t62.5 119t94.5 75t118.5 26t118.5 -26t94.5 -75t62.5 -119t22.5 -158q0 -89 -22.5 -159t-62.5 -119t-94.5 -75t-118.5 -26zM354 141q33 0 61.5 13.5t49.5 41t32.5 69.5t11.5 99t-11.5 99 t-32.5 69t-49.5 40.5t-61.5 13.5t-61.5 -13.5t-49.5 -40.5t-32.5 -69t-11.5 -99t11.5 -99t32.5 -69.5t49.5 -41t61.5 -13.5zM579 908q-7 -29 -21 -51.5t-32 -37.5t-38.5 -22.5t-41.5 -7.5q-29 0 -54.5 10t-55.5 36q-21 18 -36.5 28t-36.5 10q-26 0 -40.5 -19t-23.5 -60 l-70 44q7 29 21 51.5t32 37.5t38.5 22.5t41.5 7.5q29 0 51 -8t46 -28q29 -23 46.5 -35.5t39.5 -12.5q26 0 40.5 19t23.5 60z" />
<glyph unicode="&#xd6;" horiz-adv-x="708" d="M56 0zM354 -15q-64 0 -118.5 26t-94.5 75t-62.5 119t-22.5 159q0 88 22.5 158t62.5 119t94.5 75t118.5 26t118.5 -26t94.5 -75t62.5 -119t22.5 -158q0 -89 -22.5 -159t-62.5 -119t-94.5 -75t-118.5 -26zM354 141q33 0 61.5 13.5t49.5 41t32.5 69.5t11.5 99t-11.5 99 t-32.5 69t-49.5 40.5t-61.5 13.5t-61.5 -13.5t-49.5 -40.5t-32.5 -69t-11.5 -99t11.5 -99t32.5 -69.5t49.5 -41t61.5 -13.5zM167 805v132h146v-132h-146zM395 805v132h146v-132h-146z" />
<glyph unicode="&#xd7;" horiz-adv-x="613" d="M308 270l-140 -139l-89 88l139 139l-139 140l89 88l140 -140l138 140l87 -90l-137 -138l137 -138l-87 -89z" />
<glyph unicode="&#xd8;" horiz-adv-x="708" d="M80 -51l66 131q-42 50 -66 121t-24 163q0 88 22.5 158t62.5 119t94.5 75t118.5 26q31 0 59.5 -6.5t54.5 -17.5l30 60h129l-66 -130q43 -50 67 -121.5t24 -162.5q0 -89 -22.5 -159t-62.5 -119t-94.5 -75t-118.5 -26q-62 0 -118 25l-31 -61h-125zM302 150q24 -9 52 -9 q33 0 61.5 13.5t49.5 41t32.5 69.5t11.5 99q0 44 -7 78.5t-20 60.5zM402 578q-24 8 -48 8q-33 0 -61.5 -13.5t-49.5 -40.5t-32.5 -69t-11.5 -99q0 -83 25 -138z" />
<glyph unicode="&#xd9;" horiz-adv-x="634" d="M62 0zM426 727h146v-468q0 -77 -16.5 -129t-48.5 -84.5t-79 -46.5t-107 -14q-62 0 -110 14t-81 46t-50.5 83.5t-17.5 126.5v472h144v-480q0 -36 7.5 -59t22 -36.5t36 -18.5t49.5 -5q26 0 45.5 5t33 18.5t20 36.5t6.5 59v480zM155 868l62 96l201 -145l-50 -74z" />
<glyph unicode="&#xda;" horiz-adv-x="634" d="M62 0zM426 727h146v-468q0 -77 -16.5 -129t-48.5 -84.5t-79 -46.5t-107 -14q-62 0 -110 14t-81 46t-50.5 83.5t-17.5 126.5v472h144v-480q0 -36 7.5 -59t22 -36.5t36 -18.5t49.5 -5q26 0 45.5 5t33 18.5t20 36.5t6.5 59v480zM262 745l-47 74l200 145l63 -96z" />
<glyph unicode="&#xdb;" horiz-adv-x="634" d="M62 0zM426 727h146v-468q0 -77 -16.5 -129t-48.5 -84.5t-79 -46.5t-107 -14q-62 0 -110 14t-81 46t-50.5 83.5t-17.5 126.5v472h144v-480q0 -36 7.5 -59t22 -36.5t36 -18.5t49.5 -5q26 0 45.5 5t33 18.5t20 36.5t6.5 59v480zM317 834l-111 -84l-50 55l161 159l161 -159 l-51 -55z" />
<glyph unicode="&#xdc;" horiz-adv-x="634" d="M62 0zM426 727h146v-468q0 -77 -16.5 -129t-48.5 -84.5t-79 -46.5t-107 -14q-62 0 -110 14t-81 46t-50.5 83.5t-17.5 126.5v472h144v-480q0 -36 7.5 -59t22 -36.5t36 -18.5t49.5 -5q26 0 45.5 5t33 18.5t20 36.5t6.5 59v480zM130 805v132h146v-132h-146zM358 805v132h146 v-132h-146z" />
<glyph unicode="&#xdd;" horiz-adv-x="596" d="M9 0zM219 0v272l-210 455h162l125 -292h4l126 292h161l-208 -453v-274h-160zM243 745l-47 74l200 145l63 -96z" />
<glyph unicode="&#xde;" horiz-adv-x="603" d="M66 0v727h145v-140h139q51 0 92.5 -15.5t70.5 -44.5t45 -70.5t16 -93.5q0 -55 -17 -97t-47.5 -70.5t-74 -43.5t-96.5 -15h-128v-137h-145zM348 276q43 0 62.5 21t19.5 59q0 90 -83 90h-136v-170h137z" />
<glyph unicode="&#xdf;" horiz-adv-x="614" d="M306 129q13 -10 44 -10q32 0 52 25.5t20 76.5q0 56 -30 82.5t-96 26.5v122q27 0 49 17.5t22 63.5q0 83 -77 83q-38 0 -59 -22t-21 -71v-523h-144v523q0 116 55 176.5t160 60.5q109 0 168.5 -53t59.5 -152q0 -57 -20.5 -93.5t-46.5 -53.5q19 -5 40.5 -17.5t39.5 -35 t30 -55.5t12 -79q0 -112 -55 -174t-159 -62q-32 0 -57.5 6t-38.5 12z" />
<glyph unicode="&#xe0;" d="M11 0zM457 0l-32 112h-226l-31 -112h-157l210 727h185l208 -727h-157zM313 507h-5l-71 -255h148zM151 868l62 96l201 -145l-50 -74z" />
<glyph unicode="&#xe1;" d="M11 0zM457 0l-32 112h-226l-31 -112h-157l210 727h185l208 -727h-157zM313 507h-5l-71 -255h148zM258 745l-47 74l200 145l63 -96z" />
<glyph unicode="&#xe2;" d="M11 0zM457 0l-32 112h-226l-31 -112h-157l210 727h185l208 -727h-157zM313 507h-5l-71 -255h148zM312 834l-111 -84l-50 55l161 159l161 -159l-51 -55z" />
<glyph unicode="&#xe3;" d="M11 0zM457 0l-32 112h-226l-31 -112h-157l210 727h185l208 -727h-157zM313 507h-5l-71 -255h148zM537 908q-7 -29 -21 -51.5t-32 -37.5t-38.5 -22.5t-41.5 -7.5q-29 0 -54.5 10t-55.5 36q-21 18 -36.5 28t-36.5 10q-26 0 -40.5 -19t-23.5 -60l-70 44q7 29 21 51.5 t32 37.5t38.5 22.5t41.5 7.5q29 0 51 -8t46 -28q29 -23 46.5 -35.5t39.5 -12.5q26 0 40.5 19t23.5 60z" />
<glyph unicode="&#xe4;" d="M11 0zM457 0l-32 112h-226l-31 -112h-157l210 727h185l208 -727h-157zM313 507h-5l-71 -255h148zM125 805v132h146v-132h-146zM353 805v132h146v-132h-146z" />
<glyph unicode="&#xe5;" d="M11 0zM457 0l-32 112h-226l-31 -112h-157l210 727h185l208 -727h-157zM313 507h-5l-71 -255h148zM312 742q-23 0 -43 9t-35 24t-23.5 35t-8.5 43t8.5 43t23.5 35t35 24t43 9t43 -9t35 -24t24 -35t9 -43t-9 -43t-24 -35t-35 -24t-43 -9zM351 853q0 17 -11 28t-28 11 t-28 -11t-11 -28t11 -28t28 -11t28 11t11 28z" />
<glyph unicode="&#xe6;" horiz-adv-x="869" d="M11 0zM455 0l-17 112h-248l-30 -112h-149l210 727h587v-144h-292l20 -140h266v-141h-245l24 -158h227v-144h-353zM369 583h-51l-90 -331h190z" />
<glyph unicode="&#xe7;" horiz-adv-x="662" d="M56 0zM619 228q-6 -54 -27 -98.5t-55 -76.5t-79 -50t-99 -18q-67 0 -122.5 22t-95.5 68t-62.5 117.5t-22.5 171.5q0 99 22.5 170.5t62.5 117.5t95.5 68t122.5 22q54 0 99 -17.5t79.5 -49.5t55.5 -76.5t27 -98.5l-143 -15q-21 101 -129 101q-67 0 -105.5 -53t-38.5 -169 q0 -117 38.5 -170t105.5 -53q104 0 128 101zM291 -236l42 83l-4 4h-51v123h145v-123l-51 -87h-81z" />
<glyph unicode="&#xe8;" horiz-adv-x="528" d="M66 0zM66 0v727h401v-144h-256v-140h252v-141h-252v-158h256v-144h-401zM110 868l62 96l201 -145l-50 -74z" />
<glyph unicode="&#xe9;" horiz-adv-x="528" d="M66 0zM66 0v727h401v-144h-256v-140h252v-141h-252v-158h256v-144h-401zM229 745l-47 74l200 145l63 -96z" />
<glyph unicode="&#xea;" horiz-adv-x="528" d="M66 0zM66 0v727h401v-144h-256v-140h252v-141h-252v-158h256v-144h-401zM274 834l-111 -84l-50 55l161 159l161 -159l-51 -55z" />
<glyph unicode="&#xeb;" horiz-adv-x="528" d="M66 0zM66 0v727h401v-144h-256v-140h252v-141h-252v-158h256v-144h-401zM84 805v132h146v-132h-146zM312 805v132h146v-132h-146z" />
<glyph unicode="&#xec;" horiz-adv-x="285" d="M0 0zM70 0v727h146v-727h-146zM-19 868l62 96l201 -145l-50 -74z" />
<glyph unicode="&#xed;" horiz-adv-x="285" d="M41 0zM70 0v727h146v-727h-146zM88 745l-47 74l200 145l63 -96z" />
<glyph unicode="&#xee;" horiz-adv-x="285" d="M0 0zM70 0v727h146v-727h-146zM143 834l-111 -84l-50 55l161 159l161 -159l-51 -55z" />
<glyph unicode="&#xef;" horiz-adv-x="285" d="M0 0zM70 0v727h146v-727h-146zM-44 805v132h146v-132h-146zM184 805v132h146v-132h-146z" />
<glyph unicode="&#xf0;" horiz-adv-x="672" d="M5 0zM66 0v301h-61v143h61v283h244q90 0 150.5 -28t97 -76.5t51.5 -115t15 -143.5q0 -78 -15 -144.5t-51.5 -115t-97 -76.5t-150.5 -28h-244zM301 144q46 0 79.5 9t55 33.5t31.5 67.5t10 110q0 66 -10 108.5t-31.5 67t-55 34t-79.5 9.5h-90v-139h132v-143h-132v-157h90z " />
<glyph unicode="&#xf1;" horiz-adv-x="671" d="M66 0zM464 0l-251 464h-6v-464h-141v727h171l221 -437h6v437h141v-727h-141zM560 908q-7 -29 -21 -51.5t-32 -37.5t-38.5 -22.5t-41.5 -7.5q-29 0 -54.5 10t-55.5 36q-21 18 -36.5 28t-36.5 10q-26 0 -40.5 -19t-23.5 -60l-70 44q7 29 21 51.5t32 37.5t38.5 22.5 t41.5 7.5q29 0 51 -8t46 -28q29 -23 46.5 -35.5t39.5 -12.5q26 0 40.5 19t23.5 60z" />
<glyph unicode="&#xf2;" horiz-adv-x="708" d="M56 0zM354 -15q-64 0 -118.5 26t-94.5 75t-62.5 119t-22.5 159q0 88 22.5 158t62.5 119t94.5 75t118.5 26t118.5 -26t94.5 -75t62.5 -119t22.5 -158q0 -89 -22.5 -159t-62.5 -119t-94.5 -75t-118.5 -26zM354 141q33 0 61.5 13.5t49.5 41t32.5 69.5t11.5 99t-11.5 99 t-32.5 69t-49.5 40.5t-61.5 13.5t-61.5 -13.5t-49.5 -40.5t-32.5 -69t-11.5 -99t11.5 -99t32.5 -69.5t49.5 -41t61.5 -13.5zM192 868l62 96l201 -145l-50 -74z" />
<glyph unicode="&#xf3;" horiz-adv-x="708" d="M56 0zM354 -15q-64 0 -118.5 26t-94.5 75t-62.5 119t-22.5 159q0 88 22.5 158t62.5 119t94.5 75t118.5 26t118.5 -26t94.5 -75t62.5 -119t22.5 -158q0 -89 -22.5 -159t-62.5 -119t-94.5 -75t-118.5 -26zM354 141q33 0 61.5 13.5t49.5 41t32.5 69.5t11.5 99t-11.5 99 t-32.5 69t-49.5 40.5t-61.5 13.5t-61.5 -13.5t-49.5 -40.5t-32.5 -69t-11.5 -99t11.5 -99t32.5 -69.5t49.5 -41t61.5 -13.5zM299 745l-47 74l200 145l63 -96z" />
<glyph unicode="&#xf4;" horiz-adv-x="708" d="M56 0zM354 -15q-64 0 -118.5 26t-94.5 75t-62.5 119t-22.5 159q0 88 22.5 158t62.5 119t94.5 75t118.5 26t118.5 -26t94.5 -75t62.5 -119t22.5 -158q0 -89 -22.5 -159t-62.5 -119t-94.5 -75t-118.5 -26zM354 141q33 0 61.5 13.5t49.5 41t32.5 69.5t11.5 99t-11.5 99 t-32.5 69t-49.5 40.5t-61.5 13.5t-61.5 -13.5t-49.5 -40.5t-32.5 -69t-11.5 -99t11.5 -99t32.5 -69.5t49.5 -41t61.5 -13.5zM354 834l-111 -84l-50 55l161 159l161 -159l-51 -55z" />
<glyph unicode="&#xf5;" horiz-adv-x="708" d="M56 0zM354 -15q-64 0 -118.5 26t-94.5 75t-62.5 119t-22.5 159q0 88 22.5 158t62.5 119t94.5 75t118.5 26t118.5 -26t94.5 -75t62.5 -119t22.5 -158q0 -89 -22.5 -159t-62.5 -119t-94.5 -75t-118.5 -26zM354 141q33 0 61.5 13.5t49.5 41t32.5 69.5t11.5 99t-11.5 99 t-32.5 69t-49.5 40.5t-61.5 13.5t-61.5 -13.5t-49.5 -40.5t-32.5 -69t-11.5 -99t11.5 -99t32.5 -69.5t49.5 -41t61.5 -13.5zM579 908q-7 -29 -21 -51.5t-32 -37.5t-38.5 -22.5t-41.5 -7.5q-29 0 -54.5 10t-55.5 36q-21 18 -36.5 28t-36.5 10q-26 0 -40.5 -19t-23.5 -60 l-70 44q7 29 21 51.5t32 37.5t38.5 22.5t41.5 7.5q29 0 51 -8t46 -28q29 -23 46.5 -35.5t39.5 -12.5q26 0 40.5 19t23.5 60z" />
<glyph unicode="&#xf6;" horiz-adv-x="708" d="M56 0zM354 -15q-64 0 -118.5 26t-94.5 75t-62.5 119t-22.5 159q0 88 22.5 158t62.5 119t94.5 75t118.5 26t118.5 -26t94.5 -75t62.5 -119t22.5 -158q0 -89 -22.5 -159t-62.5 -119t-94.5 -75t-118.5 -26zM354 141q33 0 61.5 13.5t49.5 41t32.5 69.5t11.5 99t-11.5 99 t-32.5 69t-49.5 40.5t-61.5 13.5t-61.5 -13.5t-49.5 -40.5t-32.5 -69t-11.5 -99t11.5 -99t32.5 -69.5t49.5 -41t61.5 -13.5zM167 805v132h146v-132h-146zM395 805v132h146v-132h-146z" />
<glyph unicode="&#xf7;" horiz-adv-x="592" d="M36 297v124h519v-124h-519zM223 65v132h145v-132h-145zM223 521v132h145v-132h-145z" />
<glyph unicode="&#xf8;" horiz-adv-x="708" d="M56 0zM80 -51l66 131q-42 50 -66 121t-24 163q0 88 22.5 158t62.5 119t94.5 75t118.5 26q31 0 59.5 -6.5t54.5 -17.5l30 60h129l-66 -130q43 -50 67 -121.5t24 -162.5q0 -89 -22.5 -159t-62.5 -119t-94.5 -75t-118.5 -26q-62 0 -118 25l-31 -61h-125zM302 150 q24 -9 52 -9q33 0 61.5 13.5t49.5 41t32.5 69.5t11.5 99q0 44 -7 78.5t-20 60.5zM402 578q-24 8 -48 8q-33 0 -61.5 -13.5t-49.5 -40.5t-32.5 -69t-11.5 -99q0 -83 25 -138z" />
<glyph unicode="&#xf9;" horiz-adv-x="634" d="M62 0zM426 727h146v-468q0 -77 -16.5 -129t-48.5 -84.5t-79 -46.5t-107 -14q-62 0 -110 14t-81 46t-50.5 83.5t-17.5 126.5v472h144v-480q0 -36 7.5 -59t22 -36.5t36 -18.5t49.5 -5q26 0 45.5 5t33 18.5t20 36.5t6.5 59v480zM155 868l62 96l201 -145l-50 -74z" />
<glyph unicode="&#xfa;" horiz-adv-x="634" d="M62 0zM426 727h146v-468q0 -77 -16.5 -129t-48.5 -84.5t-79 -46.5t-107 -14q-62 0 -110 14t-81 46t-50.5 83.5t-17.5 126.5v472h144v-480q0 -36 7.5 -59t22 -36.5t36 -18.5t49.5 -5q26 0 45.5 5t33 18.5t20 36.5t6.5 59v480zM262 745l-47 74l200 145l63 -96z" />
<glyph unicode="&#xfb;" horiz-adv-x="634" d="M62 0zM426 727h146v-468q0 -77 -16.5 -129t-48.5 -84.5t-79 -46.5t-107 -14q-62 0 -110 14t-81 46t-50.5 83.5t-17.5 126.5v472h144v-480q0 -36 7.5 -59t22 -36.5t36 -18.5t49.5 -5q26 0 45.5 5t33 18.5t20 36.5t6.5 59v480zM317 834l-111 -84l-50 55l161 159l161 -159 l-51 -55z" />
<glyph unicode="&#xfc;" horiz-adv-x="634" d="M62 0zM426 727h146v-468q0 -77 -16.5 -129t-48.5 -84.5t-79 -46.5t-107 -14q-62 0 -110 14t-81 46t-50.5 83.5t-17.5 126.5v472h144v-480q0 -36 7.5 -59t22 -36.5t36 -18.5t49.5 -5q26 0 45.5 5t33 18.5t20 36.5t6.5 59v480zM130 805v132h146v-132h-146zM358 805v132h146 v-132h-146z" />
<glyph unicode="&#xfd;" horiz-adv-x="596" d="M9 0zM219 0v272l-210 455h162l125 -292h4l126 292h161l-208 -453v-274h-160zM243 745l-47 74l200 145l63 -96z" />
<glyph unicode="&#xfe;" horiz-adv-x="603" d="M66 0zM66 0v727h145v-140h139q51 0 92.5 -15.5t70.5 -44.5t45 -70.5t16 -93.5q0 -55 -17 -97t-47.5 -70.5t-74 -43.5t-96.5 -15h-128v-137h-145zM348 276q43 0 62.5 21t19.5 59q0 90 -83 90h-136v-170h137z" />
<glyph unicode="&#xff;" horiz-adv-x="596" d="M9 0zM219 0v272l-210 455h162l125 -292h4l126 292h161l-208 -453v-274h-160zM111 805v132h146v-132h-146zM339 805v132h146v-132h-146z" />
<glyph unicode="&#x100;" d="M11 0zM457 0l-32 112h-226l-31 -112h-157l210 727h185l208 -727h-157zM313 507h-5l-71 -255h148zM168 857v86h289v-86h-289z" />
<glyph unicode="&#x101;" d="M11 0zM457 0l-32 112h-226l-31 -112h-157l210 727h185l208 -727h-157zM313 507h-5l-71 -255h148zM168 857v86h289v-86h-289z" />
<glyph unicode="&#x102;" d="M11 0zM457 0l-32 112h-226l-31 -112h-157l210 727h185l208 -727h-157zM313 507h-5l-71 -255h148zM476 952q-1 -33 -11.5 -65t-30.5 -57t-50.5 -40.5t-71.5 -15.5t-71.5 15.5t-50.5 40.5t-30.5 57t-11.5 65h82q3 -50 24.5 -72.5t57.5 -22.5t57.5 22.5t24.5 72.5h82z" />
<glyph unicode="&#x103;" d="M11 0zM457 0l-32 112h-226l-31 -112h-157l210 727h185l208 -727h-157zM313 507h-5l-71 -255h148zM476 952q-1 -33 -11.5 -65t-30.5 -57t-50.5 -40.5t-71.5 -15.5t-71.5 15.5t-50.5 40.5t-30.5 57t-11.5 65h82q3 -50 24.5 -72.5t57.5 -22.5t57.5 22.5t24.5 72.5h82z" />
<glyph unicode="&#x104;" d="M639 -225q-20 -7 -37.5 -9t-44.5 -2q-47 0 -78.5 26t-31.5 82q0 19 7 37.5t19 35.5l-48 167h-226l-31 -112h-157l210 727h185l208 -727q-14 -7 -26 -18.5t-21 -23.5t-14 -24t-5 -20q0 -26 15 -33t35 -7q11 0 27.5 3.5t30.5 11.5zM313 507h-5l-71 -255h148z" />
<glyph unicode="&#x105;" d="M11 0zM639 -225q-20 -7 -37.5 -9t-44.5 -2q-47 0 -78.5 26t-31.5 82q0 19 7 37.5t19 35.5l-48 167h-226l-31 -112h-157l210 727h185l208 -727q-14 -7 -26 -18.5t-21 -23.5t-14 -24t-5 -20q0 -26 15 -33t35 -7q11 0 27.5 3.5t30.5 11.5zM313 507h-5l-71 -255h148z" />
<glyph unicode="&#x106;" horiz-adv-x="662" d="M56 0zM619 228q-6 -54 -27 -98.5t-55 -76.5t-79 -50t-99 -18q-67 0 -122.5 22t-95.5 68t-62.5 117.5t-22.5 171.5q0 99 22.5 170.5t62.5 117.5t95.5 68t122.5 22q54 0 99 -17.5t79.5 -49.5t55.5 -76.5t27 -98.5l-143 -15q-21 101 -129 101q-67 0 -105.5 -53t-38.5 -169 q0 -117 38.5 -170t105.5 -53q104 0 128 101zM296 745l-47 74l200 145l63 -96z" />
<glyph unicode="&#x107;" horiz-adv-x="662" d="M56 0zM619 228q-6 -54 -27 -98.5t-55 -76.5t-79 -50t-99 -18q-67 0 -122.5 22t-95.5 68t-62.5 117.5t-22.5 171.5q0 99 22.5 170.5t62.5 117.5t95.5 68t122.5 22q54 0 99 -17.5t79.5 -49.5t55.5 -76.5t27 -98.5l-143 -15q-21 101 -129 101q-67 0 -105.5 -53t-38.5 -169 q0 -117 38.5 -170t105.5 -53q104 0 128 101zM296 745l-47 74l200 145l63 -96z" />
<glyph unicode="&#x10a;" horiz-adv-x="662" d="M56 0zM619 228q-6 -54 -27 -98.5t-55 -76.5t-79 -50t-99 -18q-67 0 -122.5 22t-95.5 68t-62.5 117.5t-22.5 171.5q0 99 22.5 170.5t62.5 117.5t95.5 68t122.5 22q54 0 99 -17.5t79.5 -49.5t55.5 -76.5t27 -98.5l-143 -15q-21 101 -129 101q-67 0 -105.5 -53t-38.5 -169 q0 -117 38.5 -170t105.5 -53q104 0 128 101zM279 805v132h144v-132h-144z" />
<glyph unicode="&#x10b;" horiz-adv-x="662" d="M56 0zM619 228q-6 -54 -27 -98.5t-55 -76.5t-79 -50t-99 -18q-67 0 -122.5 22t-95.5 68t-62.5 117.5t-22.5 171.5q0 99 22.5 170.5t62.5 117.5t95.5 68t122.5 22q54 0 99 -17.5t79.5 -49.5t55.5 -76.5t27 -98.5l-143 -15q-21 101 -129 101q-67 0 -105.5 -53t-38.5 -169 q0 -117 38.5 -170t105.5 -53q104 0 128 101zM279 805v132h144v-132h-144z" />
<glyph unicode="&#x10c;" horiz-adv-x="662" d="M56 0zM619 228q-6 -54 -27 -98.5t-55 -76.5t-79 -50t-99 -18q-67 0 -122.5 22t-95.5 68t-62.5 117.5t-22.5 171.5q0 99 22.5 170.5t62.5 117.5t95.5 68t122.5 22q54 0 99 -17.5t79.5 -49.5t55.5 -76.5t27 -98.5l-143 -15q-21 101 -129 101q-67 0 -105.5 -53t-38.5 -169 q0 -117 38.5 -170t105.5 -53q104 0 128 101zM352 750l-162 158l50 56l112 -84l109 84l51 -56z" />
<glyph unicode="&#x10d;" horiz-adv-x="662" d="M56 0zM619 228q-6 -54 -27 -98.5t-55 -76.5t-79 -50t-99 -18q-67 0 -122.5 22t-95.5 68t-62.5 117.5t-22.5 171.5q0 99 22.5 170.5t62.5 117.5t95.5 68t122.5 22q54 0 99 -17.5t79.5 -49.5t55.5 -76.5t27 -98.5l-143 -15q-21 101 -129 101q-67 0 -105.5 -53t-38.5 -169 q0 -117 38.5 -170t105.5 -53q104 0 128 101zM352 750l-162 158l50 56l112 -84l109 84l51 -56z" />
<glyph unicode="&#x10e;" horiz-adv-x="671" d="M66 0zM66 0v727h244q90 0 150.5 -28t97 -76.5t51.5 -115t15 -143.5q0 -78 -15 -144.5t-51.5 -115t-97 -76.5t-150.5 -28h-244zM301 144q46 0 79 9t54.5 33.5t31.5 67.5t10 110q0 66 -10 108.5t-31.5 67t-54.5 34t-79 9.5h-90v-439h90zM316 750l-162 158l50 56l112 -84 l109 84l51 -56z" />
<glyph unicode="&#x10f;" horiz-adv-x="671" d="M66 0zM66 0v727h244q90 0 150.5 -28t97 -76.5t51.5 -115t15 -143.5q0 -78 -15 -144.5t-51.5 -115t-97 -76.5t-150.5 -28h-244zM301 144q46 0 79 9t54.5 33.5t31.5 67.5t10 110q0 66 -10 108.5t-31.5 67t-54.5 34t-79 9.5h-90v-439h90zM316 750l-162 158l50 56l112 -84 l109 84l51 -56z" />
<glyph unicode="&#x110;" horiz-adv-x="672" d="M5 0zM66 0v301h-61v143h61v283h244q90 0 150.5 -28t97 -76.5t51.5 -115t15 -143.5q0 -78 -15 -144.5t-51.5 -115t-97 -76.5t-150.5 -28h-244zM301 144q46 0 79.5 9t55 33.5t31.5 67.5t10 110q0 66 -10 108.5t-31.5 67t-55 34t-79.5 9.5h-90v-139h132v-143h-132v-157h90z " />
<glyph unicode="&#x111;" horiz-adv-x="672" d="M5 0zM66 0v301h-61v143h61v283h244q90 0 150.5 -28t97 -76.5t51.5 -115t15 -143.5q0 -78 -15 -144.5t-51.5 -115t-97 -76.5t-150.5 -28h-244zM301 144q46 0 79.5 9t55 33.5t31.5 67.5t10 110q0 66 -10 108.5t-31.5 67t-55 34t-79.5 9.5h-90v-139h132v-143h-132v-157h90z " />
<glyph unicode="&#x112;" horiz-adv-x="528" d="M66 0zM66 0v727h401v-144h-256v-140h252v-141h-252v-158h256v-144h-401zM129 857v86h289v-86h-289z" />
<glyph unicode="&#x113;" horiz-adv-x="528" d="M66 0zM66 0v727h401v-144h-256v-140h252v-141h-252v-158h256v-144h-401zM129 857v86h289v-86h-289z" />
<glyph unicode="&#x114;" horiz-adv-x="528" d="M66 0zM66 0v727h401v-144h-256v-140h252v-141h-252v-158h256v-144h-401zM438 952q-1 -33 -11.5 -65t-30.5 -57t-50.5 -40.5t-71.5 -15.5t-71.5 15.5t-50.5 40.5t-30.5 57t-11.5 65h82q3 -50 24.5 -72.5t57.5 -22.5t57.5 22.5t24.5 72.5h82z" />
<glyph unicode="&#x115;" horiz-adv-x="528" d="M66 0zM66 0v727h401v-144h-256v-140h252v-141h-252v-158h256v-144h-401zM438 952q-1 -33 -11.5 -65t-30.5 -57t-50.5 -40.5t-71.5 -15.5t-71.5 15.5t-50.5 40.5t-30.5 57t-11.5 65h82q3 -50 24.5 -72.5t57.5 -22.5t57.5 22.5t24.5 72.5h82z" />
<glyph unicode="&#x116;" horiz-adv-x="528" d="M66 0zM66 0v727h401v-144h-256v-140h252v-141h-252v-158h256v-144h-401zM200 805v132h144v-132h-144z" />
<glyph unicode="&#x117;" horiz-adv-x="528" d="M66 0zM66 0v727h401v-144h-256v-140h252v-141h-252v-158h256v-144h-401zM200 805v132h144v-132h-144z" />
<glyph unicode="&#x118;" horiz-adv-x="528" d="M492 -225q-20 -7 -37.5 -9t-44.5 -2q-47 0 -78.5 26t-31.5 82q0 21 8.5 41.5t22.5 38t32 30.5t37 18h-334v727h401v-144h-256v-140h252v-141h-252v-158h256v-144q-14 -7 -26 -18.5t-21 -23.5t-14 -24t-5 -20q0 -26 15 -33t35 -7q11 0 27.5 3.5t30.5 11.5z" />
<glyph unicode="&#x119;" horiz-adv-x="528" d="M66 0zM492 -225q-20 -7 -37.5 -9t-44.5 -2q-47 0 -78.5 26t-31.5 82q0 21 8.5 41.5t22.5 38t32 30.5t37 18h-334v727h401v-144h-256v-140h252v-141h-252v-158h256v-144q-14 -7 -26 -18.5t-21 -23.5t-14 -24t-5 -20q0 -26 15 -33t35 -7q11 0 27.5 3.5t30.5 11.5z" />
<glyph unicode="&#x11a;" horiz-adv-x="528" d="M66 0zM66 0v727h401v-144h-256v-140h252v-141h-252v-158h256v-144h-401zM275 750l-162 158l50 56l112 -84l109 84l51 -56z" />
<glyph unicode="&#x11b;" horiz-adv-x="528" d="M66 0zM66 0v727h401v-144h-256v-140h252v-141h-252v-158h256v-144h-401zM275 750l-162 158l50 56l112 -84l109 84l51 -56z" />
<glyph unicode="&#x11e;" horiz-adv-x="691" d="M56 0zM383 236v144h264q1 -11 1.5 -28t0.5 -35q0 -64 -14 -123.5t-47.5 -106t-89 -74.5t-137.5 -28q-64 0 -119.5 22t-97 68t-65 117.5t-23.5 171.5q0 99 24 170.5t66 117.5t99.5 68t125.5 22q49 0 92.5 -14.5t78 -40.5t58 -63t33.5 -82l-140 -25q-14 35 -49 56.5 t-86 21.5q-69 0 -113.5 -55.5t-44.5 -175.5q0 -121 45.5 -176.5t121.5 -55.5q60 0 95 26.5t40 77.5h-119zM529 952q-1 -33 -11.5 -65t-30.5 -57t-50.5 -40.5t-71.5 -15.5t-71.5 15.5t-50.5 40.5t-30.5 57t-11.5 65h82q3 -50 24.5 -72.5t57.5 -22.5t57.5 22.5t24.5 72.5h82z " />
<glyph unicode="&#x11f;" horiz-adv-x="691" d="M56 0zM383 236v144h264q1 -11 1.5 -28t0.5 -35q0 -64 -14 -123.5t-47.5 -106t-89 -74.5t-137.5 -28q-64 0 -119.5 22t-97 68t-65 117.5t-23.5 171.5q0 99 24 170.5t66 117.5t99.5 68t125.5 22q49 0 92.5 -14.5t78 -40.5t58 -63t33.5 -82l-140 -25q-14 35 -49 56.5 t-86 21.5q-69 0 -113.5 -55.5t-44.5 -175.5q0 -121 45.5 -176.5t121.5 -55.5q60 0 95 26.5t40 77.5h-119zM529 952q-1 -33 -11.5 -65t-30.5 -57t-50.5 -40.5t-71.5 -15.5t-71.5 15.5t-50.5 40.5t-30.5 57t-11.5 65h82q3 -50 24.5 -72.5t57.5 -22.5t57.5 22.5t24.5 72.5h82z " />
<glyph unicode="&#x120;" horiz-adv-x="691" d="M56 0zM383 236v144h264q1 -11 1.5 -28t0.5 -35q0 -64 -14 -123.5t-47.5 -106t-89 -74.5t-137.5 -28q-64 0 -119.5 22t-97 68t-65 117.5t-23.5 171.5q0 99 24 170.5t66 117.5t99.5 68t125.5 22q49 0 92.5 -14.5t78 -40.5t58 -63t33.5 -82l-140 -25q-14 35 -49 56.5 t-86 21.5q-69 0 -113.5 -55.5t-44.5 -175.5q0 -121 45.5 -176.5t121.5 -55.5q60 0 95 26.5t40 77.5h-119zM293 805v132h144v-132h-144z" />
<glyph unicode="&#x121;" horiz-adv-x="691" d="M56 0zM383 236v144h264q1 -11 1.5 -28t0.5 -35q0 -64 -14 -123.5t-47.5 -106t-89 -74.5t-137.5 -28q-64 0 -119.5 22t-97 68t-65 117.5t-23.5 171.5q0 99 24 170.5t66 117.5t99.5 68t125.5 22q49 0 92.5 -14.5t78 -40.5t58 -63t33.5 -82l-140 -25q-14 35 -49 56.5 t-86 21.5q-69 0 -113.5 -55.5t-44.5 -175.5q0 -121 45.5 -176.5t121.5 -55.5q60 0 95 26.5t40 77.5h-119zM293 805v132h144v-132h-144z" />
<glyph unicode="&#x122;" horiz-adv-x="691" d="M56 0zM383 236v144h264q1 -11 1.5 -28t0.5 -35q0 -64 -14 -123.5t-47.5 -106t-89 -74.5t-137.5 -28q-64 0 -119.5 22t-97 68t-65 117.5t-23.5 171.5q0 99 24 170.5t66 117.5t99.5 68t125.5 22q49 0 92.5 -14.5t78 -40.5t58 -63t33.5 -82l-140 -25q-14 35 -49 56.5 t-86 21.5q-69 0 -113.5 -55.5t-44.5 -175.5q0 -121 45.5 -176.5t121.5 -55.5q60 0 95 26.5t40 77.5h-119zM306 -236l42 83l-4 4h-51v123h145v-123l-51 -87h-81z" />
<glyph unicode="&#x123;" horiz-adv-x="691" d="M56 0zM383 236v144h264q1 -11 1.5 -28t0.5 -35q0 -64 -14 -123.5t-47.5 -106t-89 -74.5t-137.5 -28q-64 0 -119.5 22t-97 68t-65 117.5t-23.5 171.5q0 99 24 170.5t66 117.5t99.5 68t125.5 22q49 0 92.5 -14.5t78 -40.5t58 -63t33.5 -82l-140 -25q-14 35 -49 56.5 t-86 21.5q-69 0 -113.5 -55.5t-44.5 -175.5q0 -121 45.5 -176.5t121.5 -55.5q60 0 95 26.5t40 77.5h-119zM306 -236l42 83l-4 4h-51v123h145v-123l-51 -87h-81z" />
<glyph unicode="&#x126;" horiz-adv-x="670" d="M460 0v301h-249v-301h-145v549h-66v86h66v92h145v-92h249v92h144v-92h66v-86h-66v-549h-144zM460 444v105h-249v-105h249z" />
<glyph unicode="&#x127;" horiz-adv-x="670" d="M0 0zM460 0v301h-249v-301h-145v549h-66v86h66v92h145v-92h249v92h144v-92h66v-86h-66v-549h-144zM460 444v105h-249v-105h249z" />
<glyph unicode="&#x12a;" horiz-adv-x="285" d="M0 0zM70 0v727h146v-727h-146zM-2 857v86h289v-86h-289z" />
<glyph unicode="&#x12b;" horiz-adv-x="285" d="M0 0zM70 0v727h146v-727h-146zM-2 857v86h289v-86h-289z" />
<glyph unicode="&#x12c;" horiz-adv-x="285" d="M0 0zM70 0v727h146v-727h-146zM307 952q-1 -33 -11.5 -65t-30.5 -57t-50.5 -40.5t-71.5 -15.5t-71.5 15.5t-50.5 40.5t-30.5 57t-11.5 65h82q3 -50 24.5 -72.5t57.5 -22.5t57.5 22.5t24.5 72.5h82z" />
<glyph unicode="&#x12d;" horiz-adv-x="285" d="M0 0zM70 0v727h146v-727h-146zM307 952q-1 -33 -11.5 -65t-30.5 -57t-50.5 -40.5t-71.5 -15.5t-71.5 15.5t-50.5 40.5t-30.5 57t-11.5 65h82q3 -50 24.5 -72.5t57.5 -22.5t57.5 22.5t24.5 72.5h82z" />
<glyph unicode="&#x12e;" horiz-adv-x="285" d="M241 -225q-20 -7 -37.5 -9t-44.5 -2q-47 0 -78.5 26t-31.5 82q0 17 5.5 33.5t15.5 32.5v789h146v-727q-14 -7 -26 -18.5t-21 -23.5t-14 -24t-5 -20q0 -26 15 -33t35 -7q11 0 27.5 3.5t30.5 11.5z" />
<glyph unicode="&#x12f;" horiz-adv-x="285" d="M49 0zM241 -225q-20 -7 -37.5 -9t-44.5 -2q-47 0 -78.5 26t-31.5 82q0 17 5.5 33.5t15.5 32.5v789h146v-727q-14 -7 -26 -18.5t-21 -23.5t-14 -24t-5 -20q0 -26 15 -33t35 -7q11 0 27.5 3.5t30.5 11.5z" />
<glyph unicode="&#x130;" horiz-adv-x="285" d="M70 0zM70 0v727h146v-727h-146zM70 805v132h144v-132h-144z" />
<glyph unicode="&#x131;" horiz-adv-x="285" d="M70 0zM70 0v727h146v-727h-146z" />
<glyph unicode="&#x132;" horiz-adv-x="819" d="M70 0zM70 0v727h146v-727h-146zM611 727h146v-467q0 -130 -62 -202.5t-193 -72.5q-63 0 -110.5 20t-85.5 62l95 110q20 -26 42 -39t61 -13q51 0 79 30.5t28 104.5v467z" />
<glyph unicode="&#x133;" horiz-adv-x="819" d="M70 0zM70 0v727h146v-727h-146zM611 727h146v-467q0 -130 -62 -202.5t-193 -72.5q-63 0 -110.5 20t-85.5 62l95 110q20 -26 42 -39t61 -13q51 0 79 30.5t28 104.5v467z" />
<glyph unicode="&#x136;" horiz-adv-x="608" d="M66 0zM411 0l-178 329h-22v-329h-145v727h145v-276h20l179 276h177l-225 -329l238 -398h-189zM249 -236l42 83l-4 4h-51v123h145v-123l-51 -87h-81z" />
<glyph unicode="&#x137;" horiz-adv-x="608" d="M66 0zM411 0l-178 329h-22v-329h-145v727h145v-276h20l179 276h177l-225 -329l238 -398h-189zM249 -236l42 83l-4 4h-51v123h145v-123l-51 -87h-81z" />
<glyph unicode="&#x139;" horiz-adv-x="558" d="M66 0zM66 0v727h145v-583h323v-144h-468zM124 745l-47 74l200 145l63 -96z" />
<glyph unicode="&#x13a;" horiz-adv-x="558" d="M66 0zM66 0v727h145v-583h323v-144h-468zM124 745l-47 74l200 145l63 -96z" />
<glyph unicode="&#x13b;" horiz-adv-x="558" d="M66 0zM66 0v727h145v-583h323v-144h-468zM239 -236l42 83l-4 4h-51v123h145v-123l-51 -87h-81z" />
<glyph unicode="&#x13c;" horiz-adv-x="558" d="M66 0zM66 0v727h145v-583h323v-144h-468zM239 -236l42 83l-4 4h-51v123h145v-123l-51 -87h-81z" />
<glyph unicode="&#x13d;" horiz-adv-x="558" d="M66 0zM66 0v727h145v-583h323v-144h-468zM284 532l42 83l-4 4h-51v123h145v-123l-51 -87h-81z" />
<glyph unicode="&#x13e;" horiz-adv-x="558" d="M66 0zM66 0v727h145v-583h323v-144h-468zM284 532l42 83l-4 4h-51v123h145v-123l-51 -87h-81z" />
<glyph unicode="&#x13f;" horiz-adv-x="558" d="M66 0zM66 0v727h145v-583h323v-144h-468zM275 327v132h144v-132h-144z" />
<glyph unicode="&#x140;" horiz-adv-x="558" d="M66 0zM66 0v727h145v-583h323v-144h-468zM275 327v132h144v-132h-144z" />
<glyph unicode="&#x141;" horiz-adv-x="559" d="M66 0v345l-61 -29v144l61 29v238h145v-168l171 83v-144l-171 -83v-271h324v-144h-469z" />
<glyph unicode="&#x142;" horiz-adv-x="559" d="M5 0zM66 0v345l-61 -29v144l61 29v238h145v-168l171 83v-144l-171 -83v-271h324v-144h-469z" />
<glyph unicode="&#x143;" horiz-adv-x="671" d="M66 0zM464 0l-251 464h-6v-464h-141v727h171l221 -437h6v437h141v-727h-141zM281 745l-47 74l200 145l63 -96z" />
<glyph unicode="&#x144;" horiz-adv-x="671" d="M66 0zM464 0l-251 464h-6v-464h-141v727h171l221 -437h6v437h141v-727h-141zM281 745l-47 74l200 145l63 -96z" />
<glyph unicode="&#x145;" horiz-adv-x="671" d="M66 0zM464 0l-251 464h-6v-464h-141v727h171l221 -437h6v437h141v-727h-141zM276 -236l42 83l-4 4h-51v123h145v-123l-51 -87h-81z" />
<glyph unicode="&#x146;" horiz-adv-x="671" d="M66 0zM464 0l-251 464h-6v-464h-141v727h171l221 -437h6v437h141v-727h-141zM276 -236l42 83l-4 4h-51v123h145v-123l-51 -87h-81z" />
<glyph unicode="&#x147;" horiz-adv-x="671" d="M66 0zM464 0l-251 464h-6v-464h-141v727h171l221 -437h6v437h141v-727h-141zM336 750l-162 158l50 56l112 -84l109 84l51 -56z" />
<glyph unicode="&#x148;" horiz-adv-x="671" d="M66 0zM464 0l-251 464h-6v-464h-141v727h171l221 -437h6v437h141v-727h-141zM336 750l-162 158l50 56l112 -84l109 84l51 -56z" />
<glyph unicode="&#x14a;" horiz-adv-x="671" d="M605 38q0 -50 -14 -92.5t-41.5 -73.5t-68 -48.5t-93.5 -17.5q-47 0 -83 14t-62 35l79 114q23 -20 54 -20q32 0 54 16t30 43l-247 456h-6v-464h-141v727h171l221 -437h6v437h141v-689z" />
<glyph unicode="&#x14b;" horiz-adv-x="671" d="M66 0zM605 38q0 -50 -14 -92.5t-41.5 -73.5t-68 -48.5t-93.5 -17.5q-47 0 -83 14t-62 35l79 114q23 -20 54 -20q32 0 54 16t30 43l-247 456h-6v-464h-141v727h171l221 -437h6v437h141v-689z" />
<glyph unicode="&#x14c;" horiz-adv-x="708" d="M56 0zM354 -15q-64 0 -118.5 26t-94.5 75t-62.5 119t-22.5 159q0 88 22.5 158t62.5 119t94.5 75t118.5 26t118.5 -26t94.5 -75t62.5 -119t22.5 -158q0 -89 -22.5 -159t-62.5 -119t-94.5 -75t-118.5 -26zM354 141q33 0 61.5 13.5t49.5 41t32.5 69.5t11.5 99t-11.5 99 t-32.5 69t-49.5 40.5t-61.5 13.5t-61.5 -13.5t-49.5 -40.5t-32.5 -69t-11.5 -99t11.5 -99t32.5 -69.5t49.5 -41t61.5 -13.5zM209 857v86h289v-86h-289z" />
<glyph unicode="&#x14d;" horiz-adv-x="708" d="M56 0zM354 -15q-64 0 -118.5 26t-94.5 75t-62.5 119t-22.5 159q0 88 22.5 158t62.5 119t94.5 75t118.5 26t118.5 -26t94.5 -75t62.5 -119t22.5 -158q0 -89 -22.5 -159t-62.5 -119t-94.5 -75t-118.5 -26zM354 141q33 0 61.5 13.5t49.5 41t32.5 69.5t11.5 99t-11.5 99 t-32.5 69t-49.5 40.5t-61.5 13.5t-61.5 -13.5t-49.5 -40.5t-32.5 -69t-11.5 -99t11.5 -99t32.5 -69.5t49.5 -41t61.5 -13.5zM209 857v86h289v-86h-289z" />
<glyph unicode="&#x14e;" horiz-adv-x="708" d="M56 0zM354 -15q-64 0 -118.5 26t-94.5 75t-62.5 119t-22.5 159q0 88 22.5 158t62.5 119t94.5 75t118.5 26t118.5 -26t94.5 -75t62.5 -119t22.5 -158q0 -89 -22.5 -159t-62.5 -119t-94.5 -75t-118.5 -26zM354 141q33 0 61.5 13.5t49.5 41t32.5 69.5t11.5 99t-11.5 99 t-32.5 69t-49.5 40.5t-61.5 13.5t-61.5 -13.5t-49.5 -40.5t-32.5 -69t-11.5 -99t11.5 -99t32.5 -69.5t49.5 -41t61.5 -13.5zM518 952q-1 -33 -11.5 -65t-30.5 -57t-50.5 -40.5t-71.5 -15.5t-71.5 15.5t-50.5 40.5t-30.5 57t-11.5 65h82q3 -50 24.5 -72.5t57.5 -22.5 t57.5 22.5t24.5 72.5h82z" />
<glyph unicode="&#x14f;" horiz-adv-x="708" d="M56 0zM354 -15q-64 0 -118.5 26t-94.5 75t-62.5 119t-22.5 159q0 88 22.5 158t62.5 119t94.5 75t118.5 26t118.5 -26t94.5 -75t62.5 -119t22.5 -158q0 -89 -22.5 -159t-62.5 -119t-94.5 -75t-118.5 -26zM354 141q33 0 61.5 13.5t49.5 41t32.5 69.5t11.5 99t-11.5 99 t-32.5 69t-49.5 40.5t-61.5 13.5t-61.5 -13.5t-49.5 -40.5t-32.5 -69t-11.5 -99t11.5 -99t32.5 -69.5t49.5 -41t61.5 -13.5zM518 952q-1 -33 -11.5 -65t-30.5 -57t-50.5 -40.5t-71.5 -15.5t-71.5 15.5t-50.5 40.5t-30.5 57t-11.5 65h82q3 -50 24.5 -72.5t57.5 -22.5 t57.5 22.5t24.5 72.5h82z" />
<glyph unicode="&#x150;" horiz-adv-x="708" d="M56 0zM354 -15q-64 0 -118.5 26t-94.5 75t-62.5 119t-22.5 159q0 88 22.5 158t62.5 119t94.5 75t118.5 26t118.5 -26t94.5 -75t62.5 -119t22.5 -158q0 -89 -22.5 -159t-62.5 -119t-94.5 -75t-118.5 -26zM354 141q33 0 61.5 13.5t49.5 41t32.5 69.5t11.5 99t-11.5 99 t-32.5 69t-49.5 40.5t-61.5 13.5t-61.5 -13.5t-49.5 -40.5t-32.5 -69t-11.5 -99t11.5 -99t32.5 -69.5t49.5 -41t61.5 -13.5zM416 745l-50 74l202 145l63 -96zM183 745l-47 74l199 145l64 -96z" />
<glyph unicode="&#x151;" horiz-adv-x="708" d="M56 0zM354 -15q-64 0 -118.5 26t-94.5 75t-62.5 119t-22.5 159q0 88 22.5 158t62.5 119t94.5 75t118.5 26t118.5 -26t94.5 -75t62.5 -119t22.5 -158q0 -89 -22.5 -159t-62.5 -119t-94.5 -75t-118.5 -26zM354 141q33 0 61.5 13.5t49.5 41t32.5 69.5t11.5 99t-11.5 99 t-32.5 69t-49.5 40.5t-61.5 13.5t-61.5 -13.5t-49.5 -40.5t-32.5 -69t-11.5 -99t11.5 -99t32.5 -69.5t49.5 -41t61.5 -13.5zM416 745l-50 74l202 145l63 -96zM183 745l-47 74l199 145l64 -96z" />
<glyph unicode="&#x152;" horiz-adv-x="971" d="M509 0v39q-29 -26 -66.5 -40t-83.5 -14q-65 0 -120.5 26t-96 75t-63.5 119t-23 159q0 88 23 158t63.5 119t96 75t120.5 26q46 0 83.5 -14t66.5 -40v39h401v-144h-255v-140h251v-141h-251v-158h255v-144h-401zM509 486q-11 41 -49 70.5t-96 29.5q-36 0 -65.5 -13.5 t-51.5 -40.5t-34 -69t-12 -99t12 -99t34 -69.5t51.5 -41t65.5 -13.5q58 0 96 24t49 55v266z" />
<glyph unicode="&#x153;" horiz-adv-x="971" d="M56 0zM509 0v39q-29 -26 -66.5 -40t-83.5 -14q-65 0 -120.5 26t-96 75t-63.5 119t-23 159q0 88 23 158t63.5 119t96 75t120.5 26q46 0 83.5 -14t66.5 -40v39h401v-144h-255v-140h251v-141h-251v-158h255v-144h-401zM509 486q-11 41 -49 70.5t-96 29.5q-36 0 -65.5 -13.5 t-51.5 -40.5t-34 -69t-12 -99t12 -99t34 -69.5t51.5 -41t65.5 -13.5q58 0 96 24t49 55v266z" />
<glyph unicode="&#x154;" horiz-adv-x="610" d="M66 0zM424 0q-7 11 -7 34v159q0 42 -16.5 61t-58.5 19h-131v-273h-145v727h268q106 0 163 -58.5t57 -160.5q0 -65 -21.5 -102t-46.5 -51q14 -6 27.5 -17t24.5 -28.5t18 -42.5t7 -59v-171q0 -23 7 -37h-146zM326 408q45 0 65 25.5t20 63.5t-19.5 62t-63.5 24h-117v-175 h115zM240 745l-47 74l200 145l63 -96z" />
<glyph unicode="&#x155;" horiz-adv-x="610" d="M66 0zM424 0q-7 11 -7 34v159q0 42 -16.5 61t-58.5 19h-131v-273h-145v727h268q106 0 163 -58.5t57 -160.5q0 -65 -21.5 -102t-46.5 -51q14 -6 27.5 -17t24.5 -28.5t18 -42.5t7 -59v-171q0 -23 7 -37h-146zM326 408q45 0 65 25.5t20 63.5t-19.5 62t-63.5 24h-117v-175 h115zM240 745l-47 74l200 145l63 -96z" />
<glyph unicode="&#x156;" horiz-adv-x="610" d="M66 0zM424 0q-7 11 -7 34v159q0 42 -16.5 61t-58.5 19h-131v-273h-145v727h268q106 0 163 -58.5t57 -160.5q0 -65 -21.5 -102t-46.5 -51q14 -6 27.5 -17t24.5 -28.5t18 -42.5t7 -59v-171q0 -23 7 -37h-146zM326 408q45 0 65 25.5t20 63.5t-19.5 62t-63.5 24h-117v-175 h115zM255 -236l42 83l-4 4h-51v123h145v-123l-51 -87h-81z" />
<glyph unicode="&#x157;" horiz-adv-x="610" d="M66 0zM424 0q-7 11 -7 34v159q0 42 -16.5 61t-58.5 19h-131v-273h-145v727h268q106 0 163 -58.5t57 -160.5q0 -65 -21.5 -102t-46.5 -51q14 -6 27.5 -17t24.5 -28.5t18 -42.5t7 -59v-171q0 -23 7 -37h-146zM326 408q45 0 65 25.5t20 63.5t-19.5 62t-63.5 24h-117v-175 h115zM255 -236l42 83l-4 4h-51v123h145v-123l-51 -87h-81z" />
<glyph unicode="&#x158;" horiz-adv-x="610" d="M66 0zM424 0q-7 11 -7 34v159q0 42 -16.5 61t-58.5 19h-131v-273h-145v727h268q106 0 163 -58.5t57 -160.5q0 -65 -21.5 -102t-46.5 -51q14 -6 27.5 -17t24.5 -28.5t18 -42.5t7 -59v-171q0 -23 7 -37h-146zM326 408q45 0 65 25.5t20 63.5t-19.5 62t-63.5 24h-117v-175 h115zM296 750l-162 158l50 56l112 -84l109 84l51 -56z" />
<glyph unicode="&#x159;" horiz-adv-x="610" d="M66 0zM424 0q-7 11 -7 34v159q0 42 -16.5 61t-58.5 19h-131v-273h-145v727h268q106 0 163 -58.5t57 -160.5q0 -65 -21.5 -102t-46.5 -51q14 -6 27.5 -17t24.5 -28.5t18 -42.5t7 -59v-171q0 -23 7 -37h-146zM326 408q45 0 65 25.5t20 63.5t-19.5 62t-63.5 24h-117v-175 h115zM296 750l-162 158l50 56l112 -84l109 84l51 -56z" />
<glyph unicode="&#x15a;" horiz-adv-x="566" d="M37 0zM367 516q0 19 -4 35.5t-13.5 29t-26 19.5t-41.5 7q-43 0 -62.5 -19t-19.5 -45q0 -15 4 -27.5t14.5 -23t29.5 -20.5t49 -20q62 -22 107.5 -48t70.5 -56q24 -29 34.5 -64t10.5 -77q0 -51 -17 -92t-47.5 -70t-74 -44.5t-95.5 -15.5q-47 0 -90 13t-76.5 39t-55.5 65 t-27 91l145 38q2 -18 7 -36.5t15.5 -33.5t28.5 -24.5t47 -9.5q42 0 65.5 22t23.5 61q0 30 -23.5 54t-76.5 44q-49 18 -86 37.5t-66 45.5q-31 28 -45.5 64t-14.5 93q0 46 19 82.5t50.5 61t73 37.5t85.5 13q47 0 88 -12t71 -37.5t47 -66t17 -97.5zM228 745l-47 74l200 145 l63 -96z" />
<glyph unicode="&#x15b;" horiz-adv-x="566" d="M37 0zM367 516q0 19 -4 35.5t-13.5 29t-26 19.5t-41.5 7q-43 0 -62.5 -19t-19.5 -45q0 -15 4 -27.5t14.5 -23t29.5 -20.5t49 -20q62 -22 107.5 -48t70.5 -56q24 -29 34.5 -64t10.5 -77q0 -51 -17 -92t-47.5 -70t-74 -44.5t-95.5 -15.5q-47 0 -90 13t-76.5 39t-55.5 65 t-27 91l145 38q2 -18 7 -36.5t15.5 -33.5t28.5 -24.5t47 -9.5q42 0 65.5 22t23.5 61q0 30 -23.5 54t-76.5 44q-49 18 -86 37.5t-66 45.5q-31 28 -45.5 64t-14.5 93q0 46 19 82.5t50.5 61t73 37.5t85.5 13q47 0 88 -12t71 -37.5t47 -66t17 -97.5zM228 745l-47 74l200 145 l63 -96z" />
<glyph unicode="&#x15e;" horiz-adv-x="566" d="M37 0zM367 516q0 19 -4 35.5t-13.5 29t-26 19.5t-41.5 7q-43 0 -62.5 -19t-19.5 -45q0 -15 4 -27.5t14.5 -23t29.5 -20.5t49 -20q62 -22 107.5 -48t70.5 -56q24 -29 34.5 -64t10.5 -77q0 -51 -17 -92t-47.5 -70t-74 -44.5t-95.5 -15.5q-47 0 -90 13t-76.5 39t-55.5 65 t-27 91l145 38q2 -18 7 -36.5t15.5 -33.5t28.5 -24.5t47 -9.5q42 0 65.5 22t23.5 61q0 30 -23.5 54t-76.5 44q-49 18 -86 37.5t-66 45.5q-31 28 -45.5 64t-14.5 93q0 46 19 82.5t50.5 61t73 37.5t85.5 13q47 0 88 -12t71 -37.5t47 -66t17 -97.5zM223 -236l42 83l-4 4h-51 v123h145v-123l-51 -87h-81z" />
<glyph unicode="&#x15f;" horiz-adv-x="566" d="M37 0zM367 516q0 19 -4 35.5t-13.5 29t-26 19.5t-41.5 7q-43 0 -62.5 -19t-19.5 -45q0 -15 4 -27.5t14.5 -23t29.5 -20.5t49 -20q62 -22 107.5 -48t70.5 -56q24 -29 34.5 -64t10.5 -77q0 -51 -17 -92t-47.5 -70t-74 -44.5t-95.5 -15.5q-47 0 -90 13t-76.5 39t-55.5 65 t-27 91l145 38q2 -18 7 -36.5t15.5 -33.5t28.5 -24.5t47 -9.5q42 0 65.5 22t23.5 61q0 30 -23.5 54t-76.5 44q-49 18 -86 37.5t-66 45.5q-31 28 -45.5 64t-14.5 93q0 46 19 82.5t50.5 61t73 37.5t85.5 13q47 0 88 -12t71 -37.5t47 -66t17 -97.5zM223 -236l42 83l-4 4h-51 v123h145v-123l-51 -87h-81z" />
<glyph unicode="&#x160;" horiz-adv-x="566" d="M37 0zM367 516q0 19 -4 35.5t-13.5 29t-26 19.5t-41.5 7q-43 0 -62.5 -19t-19.5 -45q0 -15 4 -27.5t14.5 -23t29.5 -20.5t49 -20q62 -22 107.5 -48t70.5 -56q24 -29 34.5 -64t10.5 -77q0 -51 -17 -92t-47.5 -70t-74 -44.5t-95.5 -15.5q-47 0 -90 13t-76.5 39t-55.5 65 t-27 91l145 38q2 -18 7 -36.5t15.5 -33.5t28.5 -24.5t47 -9.5q42 0 65.5 22t23.5 61q0 30 -23.5 54t-76.5 44q-49 18 -86 37.5t-66 45.5q-31 28 -45.5 64t-14.5 93q0 46 19 82.5t50.5 61t73 37.5t85.5 13q47 0 88 -12t71 -37.5t47 -66t17 -97.5zM284 750l-162 158l50 56 l112 -84l109 84l51 -56z" />
<glyph unicode="&#x161;" horiz-adv-x="566" d="M37 0zM367 516q0 19 -4 35.5t-13.5 29t-26 19.5t-41.5 7q-43 0 -62.5 -19t-19.5 -45q0 -15 4 -27.5t14.5 -23t29.5 -20.5t49 -20q62 -22 107.5 -48t70.5 -56q24 -29 34.5 -64t10.5 -77q0 -51 -17 -92t-47.5 -70t-74 -44.5t-95.5 -15.5q-47 0 -90 13t-76.5 39t-55.5 65 t-27 91l145 38q2 -18 7 -36.5t15.5 -33.5t28.5 -24.5t47 -9.5q42 0 65.5 22t23.5 61q0 30 -23.5 54t-76.5 44q-49 18 -86 37.5t-66 45.5q-31 28 -45.5 64t-14.5 93q0 46 19 82.5t50.5 61t73 37.5t85.5 13q47 0 88 -12t71 -37.5t47 -66t17 -97.5zM284 750l-162 158l50 56 l112 -84l109 84l51 -56z" />
<glyph unicode="&#x162;" horiz-adv-x="569" d="M27 0zM208 0v583h-181v144h515v-144h-179v-583h-155zM225 -236l42 83l-4 4h-51v123h145v-123l-51 -87h-81z" />
<glyph unicode="&#x163;" horiz-adv-x="569" d="M27 0zM208 0v583h-181v144h515v-144h-179v-583h-155zM225 -236l42 83l-4 4h-51v123h145v-123l-51 -87h-81z" />
<glyph unicode="&#x164;" horiz-adv-x="569" d="M27 0zM208 0v583h-181v144h515v-144h-179v-583h-155zM285 750l-162 158l50 56l112 -84l109 84l51 -56z" />
<glyph unicode="&#x165;" horiz-adv-x="569" d="M27 0zM208 0v583h-181v144h515v-144h-179v-583h-155zM285 750l-162 158l50 56l112 -84l109 84l51 -56z" />
<glyph unicode="&#x166;" horiz-adv-x="569" d="M208 0v360h-90v123h90v100h-181v144h515v-144h-179v-100h87v-123h-87v-360h-155z" />
<glyph unicode="&#x167;" horiz-adv-x="569" d="M27 0zM208 0v360h-90v123h90v100h-181v144h515v-144h-179v-100h87v-123h-87v-360h-155z" />
<glyph unicode="&#x168;" horiz-adv-x="634" d="M62 0zM426 727h146v-468q0 -77 -16.5 -129t-48.5 -84.5t-79 -46.5t-107 -14q-62 0 -110 14t-81 46t-50.5 83.5t-17.5 126.5v472h144v-480q0 -36 7.5 -59t22 -36.5t36 -18.5t49.5 -5q26 0 45.5 5t33 18.5t20 36.5t6.5 59v480zM542 908q-7 -29 -21 -51.5t-32 -37.5 t-38.5 -22.5t-41.5 -7.5q-29 0 -54.5 10t-55.5 36q-21 18 -36.5 28t-36.5 10q-26 0 -40.5 -19t-23.5 -60l-70 44q7 29 21 51.5t32 37.5t38.5 22.5t41.5 7.5q29 0 51 -8t46 -28q29 -23 46.5 -35.5t39.5 -12.5q26 0 40.5 19t23.5 60z" />
<glyph unicode="&#x169;" horiz-adv-x="634" d="M62 0zM426 727h146v-468q0 -77 -16.5 -129t-48.5 -84.5t-79 -46.5t-107 -14q-62 0 -110 14t-81 46t-50.5 83.5t-17.5 126.5v472h144v-480q0 -36 7.5 -59t22 -36.5t36 -18.5t49.5 -5q26 0 45.5 5t33 18.5t20 36.5t6.5 59v480zM542 908q-7 -29 -21 -51.5t-32 -37.5 t-38.5 -22.5t-41.5 -7.5q-29 0 -54.5 10t-55.5 36q-21 18 -36.5 28t-36.5 10q-26 0 -40.5 -19t-23.5 -60l-70 44q7 29 21 51.5t32 37.5t38.5 22.5t41.5 7.5q29 0 51 -8t46 -28q29 -23 46.5 -35.5t39.5 -12.5q26 0 40.5 19t23.5 60z" />
<glyph unicode="&#x16a;" horiz-adv-x="634" d="M62 0zM426 727h146v-468q0 -77 -16.5 -129t-48.5 -84.5t-79 -46.5t-107 -14q-62 0 -110 14t-81 46t-50.5 83.5t-17.5 126.5v472h144v-480q0 -36 7.5 -59t22 -36.5t36 -18.5t49.5 -5q26 0 45.5 5t33 18.5t20 36.5t6.5 59v480zM172 857v86h289v-86h-289z" />
<glyph unicode="&#x16b;" horiz-adv-x="634" d="M62 0zM426 727h146v-468q0 -77 -16.5 -129t-48.5 -84.5t-79 -46.5t-107 -14q-62 0 -110 14t-81 46t-50.5 83.5t-17.5 126.5v472h144v-480q0 -36 7.5 -59t22 -36.5t36 -18.5t49.5 -5q26 0 45.5 5t33 18.5t20 36.5t6.5 59v480zM172 857v86h289v-86h-289z" />
<glyph unicode="&#x16c;" horiz-adv-x="634" d="M62 0zM426 727h146v-468q0 -77 -16.5 -129t-48.5 -84.5t-79 -46.5t-107 -14q-62 0 -110 14t-81 46t-50.5 83.5t-17.5 126.5v472h144v-480q0 -36 7.5 -59t22 -36.5t36 -18.5t49.5 -5q26 0 45.5 5t33 18.5t20 36.5t6.5 59v480zM481 952q-1 -33 -11.5 -65t-30.5 -57 t-50.5 -40.5t-71.5 -15.5t-71.5 15.5t-50.5 40.5t-30.5 57t-11.5 65h82q3 -50 24.5 -72.5t57.5 -22.5t57.5 22.5t24.5 72.5h82z" />
<glyph unicode="&#x16d;" horiz-adv-x="634" d="M62 0zM426 727h146v-468q0 -77 -16.5 -129t-48.5 -84.5t-79 -46.5t-107 -14q-62 0 -110 14t-81 46t-50.5 83.5t-17.5 126.5v472h144v-480q0 -36 7.5 -59t22 -36.5t36 -18.5t49.5 -5q26 0 45.5 5t33 18.5t20 36.5t6.5 59v480zM481 952q-1 -33 -11.5 -65t-30.5 -57 t-50.5 -40.5t-71.5 -15.5t-71.5 15.5t-50.5 40.5t-30.5 57t-11.5 65h82q3 -50 24.5 -72.5t57.5 -22.5t57.5 22.5t24.5 72.5h82z" />
<glyph unicode="&#x16e;" horiz-adv-x="634" d="M62 0zM426 727h146v-468q0 -77 -16.5 -129t-48.5 -84.5t-79 -46.5t-107 -14q-62 0 -110 14t-81 46t-50.5 83.5t-17.5 126.5v472h144v-480q0 -36 7.5 -59t22 -36.5t36 -18.5t49.5 -5q26 0 45.5 5t33 18.5t20 36.5t6.5 59v480zM316 742q-23 0 -43 9t-35 24t-23.5 35 t-8.5 43t8.5 43t23.5 35t35 24t43 9t43 -9t35 -24t24 -35t9 -43t-9 -43t-24 -35t-35 -24t-43 -9zM355 853q0 17 -11 28t-28 11t-28 -11t-11 -28t11 -28t28 -11t28 11t11 28z" />
<glyph unicode="&#x16f;" horiz-adv-x="634" d="M62 0zM426 727h146v-468q0 -77 -16.5 -129t-48.5 -84.5t-79 -46.5t-107 -14q-62 0 -110 14t-81 46t-50.5 83.5t-17.5 126.5v472h144v-480q0 -36 7.5 -59t22 -36.5t36 -18.5t49.5 -5q26 0 45.5 5t33 18.5t20 36.5t6.5 59v480zM316 742q-23 0 -43 9t-35 24t-23.5 35 t-8.5 43t8.5 43t23.5 35t35 24t43 9t43 -9t35 -24t24 -35t9 -43t-9 -43t-24 -35t-35 -24t-43 -9zM355 853q0 17 -11 28t-28 11t-28 -11t-11 -28t11 -28t28 -11t28 11t11 28z" />
<glyph unicode="&#x170;" horiz-adv-x="634" d="M62 0zM426 727h146v-468q0 -77 -16.5 -129t-48.5 -84.5t-79 -46.5t-107 -14q-62 0 -110 14t-81 46t-50.5 83.5t-17.5 126.5v472h144v-480q0 -36 7.5 -59t22 -36.5t36 -18.5t49.5 -5q26 0 45.5 5t33 18.5t20 36.5t6.5 59v480zM379 745l-50 74l202 145l63 -96zM146 745 l-47 74l199 145l64 -96z" />
<glyph unicode="&#x171;" horiz-adv-x="634" d="M62 0zM426 727h146v-468q0 -77 -16.5 -129t-48.5 -84.5t-79 -46.5t-107 -14q-62 0 -110 14t-81 46t-50.5 83.5t-17.5 126.5v472h144v-480q0 -36 7.5 -59t22 -36.5t36 -18.5t49.5 -5q26 0 45.5 5t33 18.5t20 36.5t6.5 59v480zM379 745l-50 74l202 145l63 -96zM146 745 l-47 74l199 145l64 -96z" />
<glyph unicode="&#x172;" horiz-adv-x="634" d="M445 -225q-20 -7 -37.5 -9t-44.5 -2q-47 0 -78.5 26t-31.5 82q0 32 19.5 63.5t47.5 49.5q-62 0 -110 14t-81 46t-50 83.5t-17 126.5v472h144v-480q0 -36 7.5 -59t22 -36.5t36 -18.5t49.5 -5q26 0 45.5 5t33 18.5t20 36.5t6.5 59v480h146v-468q0 -61 -11.5 -105.5 t-32.5 -76t-51 -52.5t-68 -36q-14 -5 -24 -14.5t-17 -20.5t-10.5 -22t-3.5 -18q0 -26 15 -33t35 -7q11 0 27.5 3.5t30.5 11.5z" />
<glyph unicode="&#x173;" horiz-adv-x="634" d="M62 0zM445 -225q-20 -7 -37.5 -9t-44.5 -2q-47 0 -78.5 26t-31.5 82q0 32 19.5 63.5t47.5 49.5q-62 0 -110 14t-81 46t-50 83.5t-17 126.5v472h144v-480q0 -36 7.5 -59t22 -36.5t36 -18.5t49.5 -5q26 0 45.5 5t33 18.5t20 36.5t6.5 59v480h146v-468q0 -61 -11.5 -105.5 t-32.5 -76t-51 -52.5t-68 -36q-14 -5 -24 -14.5t-17 -20.5t-10.5 -22t-3.5 -18q0 -26 15 -33t35 -7q11 0 27.5 3.5t30.5 11.5z" />
<glyph unicode="&#x174;" horiz-adv-x="924" d="M13 0zM555 0l-90 419h-4l-97 -419h-194l-157 727h165l93 -498h4l110 498h157l107 -498h4l93 498h166l-163 -727h-194zM462 834l-111 -84l-50 55l161 159l161 -159l-51 -55z" />
<glyph unicode="&#x175;" horiz-adv-x="924" d="M13 0zM555 0l-90 419h-4l-97 -419h-194l-157 727h165l93 -498h4l110 498h157l107 -498h4l93 498h166l-163 -727h-194zM462 834l-111 -84l-50 55l161 159l161 -159l-51 -55z" />
<glyph unicode="&#x176;" horiz-adv-x="596" d="M9 0zM219 0v272l-210 455h162l125 -292h4l126 292h161l-208 -453v-274h-160zM298 834l-111 -84l-50 55l161 159l161 -159l-51 -55z" />
<glyph unicode="&#x177;" horiz-adv-x="596" d="M9 0zM219 0v272l-210 455h162l125 -292h4l126 292h161l-208 -453v-274h-160zM298 834l-111 -84l-50 55l161 159l161 -159l-51 -55z" />
<glyph unicode="&#x178;" horiz-adv-x="596" d="M9 0zM219 0v272l-210 455h162l125 -292h4l126 292h161l-208 -453v-274h-160zM111 805v132h146v-132h-146zM339 805v132h146v-132h-146z" />
<glyph unicode="&#x179;" horiz-adv-x="603" d="M47 0zM47 0v150l310 429v4h-310v144h509v-133l-317 -446v-4h318v-144h-510zM247 745l-47 74l200 145l63 -96z" />
<glyph unicode="&#x17a;" horiz-adv-x="603" d="M47 0zM47 0v150l310 429v4h-310v144h509v-133l-317 -446v-4h318v-144h-510zM247 745l-47 74l200 145l63 -96z" />
<glyph unicode="&#x17b;" horiz-adv-x="603" d="M47 0zM47 0v150l310 429v4h-310v144h509v-133l-317 -446v-4h318v-144h-510zM229 805v132h144v-132h-144z" />
<glyph unicode="&#x17c;" horiz-adv-x="603" d="M47 0zM47 0v150l310 429v4h-310v144h509v-133l-317 -446v-4h318v-144h-510zM229 805v132h144v-132h-144z" />
<glyph unicode="&#x17d;" horiz-adv-x="603" d="M47 0zM47 0v150l310 429v4h-310v144h509v-133l-317 -446v-4h318v-144h-510zM302 750l-162 158l50 56l112 -84l109 84l51 -56z" />
<glyph unicode="&#x17e;" horiz-adv-x="603" d="M47 0zM47 0v150l310 429v4h-310v144h509v-133l-317 -446v-4h318v-144h-510zM302 750l-162 158l50 56l112 -84l109 84l51 -56z" />
<glyph unicode="&#x192;" horiz-adv-x="487" d="M18 -58q49 9 71 33.5t30 72.5l67 379h-54l21 112h52l4 19q17 97 66.5 140.5t124.5 43.5q21 0 35.5 -2.5t27.5 -6.5v-133q-8 4 -24 7t-39 3q-26 0 -43 -12t-22 -40l-3 -19h97l-20 -112h-96l-69 -406q-15 -91 -71 -148.5t-155 -66.5v136z" />
<glyph unicode="&#x218;" horiz-adv-x="566" d="M37 0zM367 516q0 19 -4 35.5t-13.5 29t-26 19.5t-41.5 7q-43 0 -62.5 -19t-19.5 -45q0 -15 4 -27.5t14.5 -23t29.5 -20.5t49 -20q62 -22 107.5 -48t70.5 -56q24 -29 34.5 -64t10.5 -77q0 -51 -17 -92t-47.5 -70t-74 -44.5t-95.5 -15.5q-47 0 -90 13t-76.5 39t-55.5 65 t-27 91l145 38q2 -18 7 -36.5t15.5 -33.5t28.5 -24.5t47 -9.5q42 0 65.5 22t23.5 61q0 30 -23.5 54t-76.5 44q-49 18 -86 37.5t-66 45.5q-31 28 -45.5 64t-14.5 93q0 46 19 82.5t50.5 61t73 37.5t85.5 13q47 0 88 -12t71 -37.5t47 -66t17 -97.5zM223 -236l42 83l-4 4h-51 v123h145v-123l-51 -87h-81z" />
<glyph unicode="&#x219;" horiz-adv-x="566" d="M37 0zM367 516q0 19 -4 35.5t-13.5 29t-26 19.5t-41.5 7q-43 0 -62.5 -19t-19.5 -45q0 -15 4 -27.5t14.5 -23t29.5 -20.5t49 -20q62 -22 107.5 -48t70.5 -56q24 -29 34.5 -64t10.5 -77q0 -51 -17 -92t-47.5 -70t-74 -44.5t-95.5 -15.5q-47 0 -90 13t-76.5 39t-55.5 65 t-27 91l145 38q2 -18 7 -36.5t15.5 -33.5t28.5 -24.5t47 -9.5q42 0 65.5 22t23.5 61q0 30 -23.5 54t-76.5 44q-49 18 -86 37.5t-66 45.5q-31 28 -45.5 64t-14.5 93q0 46 19 82.5t50.5 61t73 37.5t85.5 13q47 0 88 -12t71 -37.5t47 -66t17 -97.5zM223 -236l42 83l-4 4h-51 v123h145v-123l-51 -87h-81z" />
<glyph unicode="&#x21a;" horiz-adv-x="569" d="M27 0zM208 0v583h-181v144h515v-144h-179v-583h-155zM225 -236l42 83l-4 4h-51v123h145v-123l-51 -87h-81z" />
<glyph unicode="&#x21b;" horiz-adv-x="569" d="M27 0zM208 0v583h-181v144h515v-144h-179v-583h-155zM225 -236l42 83l-4 4h-51v123h145v-123l-51 -87h-81z" />
<glyph unicode="&#x2c6;" horiz-adv-x="413" d="M207 673l-111 -84l-50 55l161 159l161 -159l-51 -55z" />
<glyph unicode="&#x2c7;" horiz-adv-x="413" d="M208 589l-162 158l50 56l112 -84l109 84l51 -56z" />
<glyph unicode="&#x2d8;" horiz-adv-x="380" d="M354 791q-1 -33 -11.5 -65t-30.5 -57t-50.5 -40.5t-71.5 -15.5t-71.5 15.5t-50.5 40.5t-30.5 57t-11.5 65h82q3 -50 24.5 -72.5t57.5 -22.5t57.5 22.5t24.5 72.5h82z" />
<glyph unicode="&#x2d9;" horiz-adv-x="243" d="M49 644v132h144v-132h-144z" />
<glyph unicode="&#x2da;" horiz-adv-x="313" d="M156 581q-23 0 -43 9t-35 24t-23.5 35t-8.5 43t8.5 43t23.5 35t35 24t43 9t43 -9t35 -24t24 -35t9 -43t-9 -43t-24 -35t-35 -24t-43 -9zM195 692q0 17 -11 28t-28 11t-28 -11t-11 -28t11 -28t28 -11t28 11t11 28z" />
<glyph unicode="&#x2db;" horiz-adv-x="301" d="M238 -225q-20 -7 -37.5 -9t-44.5 -2q-47 0 -78.5 26t-31.5 82q0 21 8.5 41.5t22.5 38t32 30.5t37 18h67q-14 -7 -26 -18.5t-21 -23.5t-14 -24t-5 -20q0 -26 15 -33t35 -7q11 0 27.5 3.5t30.5 11.5z" />
<glyph unicode="&#x2dc;" horiz-adv-x="541" d="M495 747q-7 -29 -21 -51.5t-32 -37.5t-38.5 -22.5t-41.5 -7.5q-29 0 -54.5 10t-55.5 36q-21 18 -36.5 28t-36.5 10q-26 0 -40.5 -19t-23.5 -60l-70 44q7 29 21 51.5t32 37.5t38.5 22.5t41.5 7.5q29 0 51 -8t46 -28q29 -23 46.5 -35.5t39.5 -12.5q26 0 40.5 19t23.5 60z " />
<glyph unicode="&#x2dd;" horiz-adv-x="585" d="M326 584l-50 74l202 145l63 -96zM93 584l-47 74l199 145l64 -96z" />
<glyph unicode="&#x394;" d="M11 0l210 727h185l208 -727h-603zM313 550h-4l-109 -406h223z" />
<glyph unicode="&#x3a9;" horiz-adv-x="705" d="M368 -1l4 115q46 54 72 98.5t39 83.5t16.5 75t3.5 74q0 82 -40 117.5t-112 35.5q-70 0 -110.5 -35.5t-40.5 -117.5q0 -38 3.5 -74t17 -75t39.5 -83.5t72 -98.5l4 -115h-282v145h109q-30 43 -51 81t-33.5 72.5t-18.5 67.5t-6 68q0 146 74.5 227.5t222.5 81.5 q150 0 224.5 -81t74.5 -228q0 -35 -6 -68t-18.5 -67.5t-33.5 -72.5t-51 -81h109v-145h-282z" />
<glyph unicode="&#x3bc;" horiz-adv-x="557" d="M534 0q-36 -10 -64 -10q-29 0 -47 10t-30 27h-3q-7 -14 -33 -28t-62 -14q-30 0 -52 10t-36 25l-4 -3q5 -23 7 -48.5t2 -54.5v-93h-145v745h145v-386q7 -24 27 -35.5t46 -11.5q35 0 50.5 22t15.5 49v362h144v-405q0 -23 9.5 -30t22.5 -7z" />
<glyph unicode="&#x3c0;" horiz-adv-x="620" d="M610 10q-9 -7 -35 -13.5t-71 -6.5q-68 0 -105.5 45.5t-37.5 120.5v266h-150v-422h-145v566h438v-391q0 -26 12 -33t31 -7q38 0 56 13z" />
<glyph unicode="&#x1e80;" horiz-adv-x="924" d="M13 0zM555 0l-90 419h-4l-97 -419h-194l-157 727h165l93 -498h4l110 498h157l107 -498h4l93 498h166l-163 -727h-194zM300 868l62 96l201 -145l-50 -74z" />
<glyph unicode="&#x1e81;" horiz-adv-x="924" d="M13 0zM555 0l-90 419h-4l-97 -419h-194l-157 727h165l93 -498h4l110 498h157l107 -498h4l93 498h166l-163 -727h-194zM300 868l62 96l201 -145l-50 -74z" />
<glyph unicode="&#x1e82;" horiz-adv-x="924" d="M13 0zM555 0l-90 419h-4l-97 -419h-194l-157 727h165l93 -498h4l110 498h157l107 -498h4l93 498h166l-163 -727h-194zM407 745l-47 74l200 145l63 -96z" />
<glyph unicode="&#x1e83;" horiz-adv-x="924" d="M13 0zM555 0l-90 419h-4l-97 -419h-194l-157 727h165l93 -498h4l110 498h157l107 -498h4l93 498h166l-163 -727h-194zM407 745l-47 74l200 145l63 -96z" />
<glyph unicode="&#x1e84;" horiz-adv-x="924" d="M13 0zM555 0l-90 419h-4l-97 -419h-194l-157 727h165l93 -498h4l110 498h157l107 -498h4l93 498h166l-163 -727h-194zM275 805v132h146v-132h-146zM503 805v132h146v-132h-146z" />
<glyph unicode="&#x1e85;" horiz-adv-x="924" d="M13 0zM555 0l-90 419h-4l-97 -419h-194l-157 727h165l93 -498h4l110 498h157l107 -498h4l93 498h166l-163 -727h-194zM275 805v132h146v-132h-146zM503 805v132h146v-132h-146z" />
<glyph unicode="&#x1ef2;" horiz-adv-x="596" d="M9 0zM219 0v272l-210 455h162l125 -292h4l126 292h161l-208 -453v-274h-160zM136 868l62 96l201 -145l-50 -74z" />
<glyph unicode="&#x1ef3;" horiz-adv-x="596" d="M9 0zM219 0v272l-210 455h162l125 -292h4l126 292h161l-208 -453v-274h-160zM136 868l62 96l201 -145l-50 -74z" />
<glyph unicode="&#x2013;" horiz-adv-x="543" d="M27 299v143h489v-143h-489z" />
<glyph unicode="&#x2014;" horiz-adv-x="945" d="M27 299v143h891v-143h-891z" />
<glyph unicode="&#x2018;" horiz-adv-x="282" d="M69 495v132l62 115h79l-51 -111l3 -4h52v-132h-145z" />
<glyph unicode="&#x2019;" horiz-adv-x="282" d="M71 480l51 111l-3 4h-52v132h145v-132l-61 -115h-80z" />
<glyph unicode="&#x201a;" horiz-adv-x="282" d="M71 -115l51 111l-3 4h-52v132h145v-132l-61 -115h-80z" />
<glyph unicode="&#x201c;" horiz-adv-x="494" d="M69 495zM69 495v132l62 115h79l-51 -111l3 -4h52v-132h-145zM281 495v132l62 115h79l-51 -111l3 -4h52v-132h-145z" />
<glyph unicode="&#x201d;" horiz-adv-x="494" d="M67 480zM71 480l51 111l-3 4h-52v132h145v-132l-61 -115h-80zM283 480l51 111l-3 4h-52v132h145v-132l-61 -115h-80z" />
<glyph unicode="&#x201e;" horiz-adv-x="494" d="M69 0zM73 -115l51 111l-3 4h-52v132h145v-132l-61 -115h-80zM285 -115l51 111l-3 4h-52v132h145v-132l-61 -115h-80z" />
<glyph unicode="&#x2020;" horiz-adv-x="463" d="M173 0v472h-108v118h108v137h120v-137h105v-118h-105v-472h-120z" />
<glyph unicode="&#x2021;" horiz-adv-x="463" d="M173 0v137h-108v118h108v217h-108v118h108v137h120v-137h105v-118h-105v-217h105v-118h-105v-137h-120z" />
<glyph unicode="&#x2022;" horiz-adv-x="333" d="M166 235q-26 0 -48 9.5t-38.5 26.5t-26 39t-9.5 48q0 24 9.5 46.5t26 39.5t38.5 27t48 10t48.5 -10t39 -27t26 -39.5t9.5 -46.5q0 -26 -9.5 -48t-26 -39t-39 -26.5t-48.5 -9.5z" />
<glyph unicode="&#x2026;" horiz-adv-x="846" d="M84 0v132h145v-132h-145zM350 0v132h145v-132h-145zM616 0v132h145v-132h-145z" />
<glyph unicode="&#x2030;" horiz-adv-x="1221" d="M73 0zM225 331q-70 0 -111 52.5t-41 158.5q0 104 41 156t111 52q69 0 110.5 -52t41.5 -156q0 -106 -41.5 -158.5t-110.5 -52.5zM225 420q27 0 43 26t16 96q0 69 -16 94t-43 25q-28 0 -43.5 -25t-15.5 -94q0 -70 15.5 -96t43.5 -26zM98 0l573 727h119l-576 -727h-116z M658 -18q-70 0 -111 52.5t-41 158.5q0 104 41 156t111 52q69 0 110.5 -52t41.5 -156q0 -106 -41.5 -158.5t-110.5 -52.5zM658 71q27 0 43 26t16 96q0 69 -16 94t-43 25q-28 0 -43.5 -25t-15.5 -94q0 -70 15.5 -96t43.5 -26zM997 -18q-70 0 -111 52.5t-41 158.5q0 104 41 156 t111 52q69 0 110.5 -52t41.5 -156q0 -106 -41.5 -158.5t-110.5 -52.5zM997 71q27 0 43 26t16 96q0 69 -16 94t-43 25q-28 0 -43.5 -25t-15.5 -94q0 -70 15.5 -96t43.5 -26z" />
<glyph unicode="&#x2039;" horiz-adv-x="294" d="M209 199l-188 185l188 187l63 -58l-103 -129l103 -128z" />
<glyph unicode="&#x203a;" horiz-adv-x="294" d="M84 199l-63 57l103 128l-103 129l63 58l188 -187z" />
<glyph unicode="&#x2044;" horiz-adv-x="266" d="M-212 0l573 727h119l-576 -727h-116z" />
<glyph unicode="&#x2070;" horiz-adv-x="407" d="M50 331zM202 331q-70 0 -111 52.5t-41 158.5q0 104 41 156t111 52q69 0 110.5 -52t41.5 -156q0 -106 -41.5 -158.5t-110.5 -52.5zM202 420q27 0 43 26t16 96q0 69 -16 94t-43 25q-28 0 -43.5 -25t-15.5 -94q0 -70 15.5 -96t43.5 -26z" />
<glyph unicode="&#x2074;" horiz-adv-x="358" d="M34 339zM194 339v72h-160v83l79 248h94l-75 -243h62v118h88v-118h40v-88h-40v-72h-88z" />
<glyph unicode="&#x2075;" horiz-adv-x="354" d="M36 331zM92 457q27 -36 73 -36q23 0 40 15.5t17 46.5q0 36 -16 50t-41 14q-15 0 -25.5 -6.5t-16.5 -12.5l-82 19l20 195h225v-89h-147l-3 -30q10 3 19.5 4t17.5 1q62 0 100 -36.5t38 -108.5q0 -74 -41 -113t-110 -39q-39 0 -69.5 14.5t-54.5 37.5z" />
<glyph unicode="&#x2076;" horiz-adv-x="354" d="M36 331zM266 659q-50 -10 -84.5 -35.5t-43.5 -51.5q24 12 53 12q24 0 47 -7t40.5 -22t28 -37.5t10.5 -52.5q0 -62 -37.5 -98t-100.5 -36q-69 0 -106 41.5t-37 120.5q0 52 17.5 97t47 78.5t68 54t80.5 24.5zM232 458q0 20 -13.5 31.5t-39.5 11.5q-25 0 -38.5 -11.5 t-13.5 -31.5t14 -29.5t39 -9.5q52 0 52 39z" />
<glyph unicode="&#x2077;" horiz-adv-x="325" d="M23 339zM80 339l110 314h-167v89h267v-88l-105 -315h-105z" />
<glyph unicode="&#x2078;" horiz-adv-x="360" d="M34 331zM306 638q0 -30 -9 -49.5t-22 -31.5q17 -11 32 -33t15 -62q0 -58 -39 -94.5t-105 -36.5t-105 36.5t-39 94.5q0 41 14 63.5t32 32.5q-10 11 -19.5 31t-9.5 49q0 48 33 80t94 32t94.5 -32t33.5 -80zM231 463q0 23 -14.5 33.5t-38.5 10.5t-38.5 -10.5t-14.5 -33.5 q0 -22 15 -31.5t38 -9.5q24 0 38.5 9.5t14.5 31.5zM222 628q0 19 -12 27.5t-32 8.5t-32 -8.5t-12 -27.5q0 -18 12 -26.5t32 -8.5t32 8.5t12 26.5z" />
<glyph unicode="&#x2079;" horiz-adv-x="355" d="M35 329zM225 617q0 22 -14 33.5t-37 11.5t-38 -11.5t-15 -33.5q0 -21 15 -34.5t38 -13.5t37 13.5t14 34.5zM122 406q38 21 60.5 46t31.5 48q-10 -5 -22 -7t-25 -2q-27 0 -51 8t-42 24t-28.5 40t-10.5 55q0 59 38 95.5t101 36.5q69 0 106.5 -41t37.5 -115q0 -56 -14 -99 t-36 -75.5t-48.5 -54.5t-51.5 -36z" />
<glyph unicode="&#x2080;" horiz-adv-x="407" d="M202 -18q-70 0 -111 52.5t-41 158.5q0 104 41 156t111 52q69 0 110.5 -52t41.5 -156q0 -106 -41.5 -158.5t-110.5 -52.5zM202 71q27 0 43 26t16 96q0 69 -16 94t-43 25q-28 0 -43.5 -25t-15.5 -94q0 -70 15.5 -96t43.5 -26z" />
<glyph unicode="&#x2081;" horiz-adv-x="225" d="M82 -10v277h-49v82h24q14 0 22 11t8 33h84v-403h-89z" />
<glyph unicode="&#x2082;" horiz-adv-x="341" d="M41 -10v43q0 75 28.5 122t88.5 74q28 13 39 23.5t11 24.5t-11.5 22t-28.5 8q-20 0 -34 -13.5t-22 -36.5l-73 62q20 38 51.5 60t85.5 22q51 0 86 -29.5t35 -88.5q0 -47 -20 -73.5t-68 -48.5q-20 -9 -33 -18t-21 -18.5t-11.5 -21t-4.5 -24.5h156v-89h-254z" />
<glyph unicode="&#x2083;" horiz-adv-x="351" d="M96 109q12 -17 26.5 -27t37.5 -10t37 14.5t14 36.5q0 25 -15 41.5t-42 16.5q-26 0 -39 -4l-15 59l73 69h-121v88h228v-93l-55 -52q13 -6 27.5 -15.5t26.5 -24.5t20 -34.5t8 -44.5q0 -72 -41.5 -109.5t-106.5 -37.5q-37 0 -70.5 15t-56.5 45z" />
<glyph unicode="&#x2084;" horiz-adv-x="358" d="M194 -10v72h-160v83l79 248h94l-75 -243h62v118h88v-118h40v-88h-40v-72h-88z" />
<glyph unicode="&#x2085;" horiz-adv-x="354" d="M92 108q27 -36 73 -36q23 0 40 15.5t17 46.5q0 36 -16 50t-41 14q-15 0 -25.5 -6.5t-16.5 -12.5l-82 19l20 195h225v-89h-147l-3 -30q10 3 19.5 4t17.5 1q62 0 100 -36.5t38 -108.5q0 -74 -41 -113t-110 -39q-39 0 -69.5 14.5t-54.5 37.5z" />
<glyph unicode="&#x2086;" horiz-adv-x="354" d="M266 310q-50 -10 -84.5 -35.5t-43.5 -51.5q24 12 53 12q24 0 47 -7t40.5 -22t28 -37.5t10.5 -52.5q0 -62 -37.5 -98t-100.5 -36q-69 0 -106 41.5t-37 120.5q0 52 17.5 97t47 78.5t68 54t80.5 24.5zM232 109q0 20 -13.5 31.5t-39.5 11.5q-25 0 -38.5 -11.5t-13.5 -31.5 t14 -29.5t39 -9.5q52 0 52 39z" />
<glyph unicode="&#x2087;" horiz-adv-x="325" d="M80 -10l110 314h-167v89h267v-88l-105 -315h-105z" />
<glyph unicode="&#x2088;" horiz-adv-x="360" d="M306 289q0 -30 -9 -49.5t-22 -31.5q17 -11 32 -33t15 -62q0 -58 -39 -94.5t-105 -36.5t-105 36.5t-39 94.5q0 41 14 63.5t32 32.5q-10 11 -19.5 31t-9.5 49q0 48 33 80t94 32t94.5 -32t33.5 -80zM231 114q0 23 -14.5 33.5t-38.5 10.5t-38.5 -10.5t-14.5 -33.5 q0 -22 15 -31.5t38 -9.5q24 0 38.5 9.5t14.5 31.5zM222 279q0 19 -12 27.5t-32 8.5t-32 -8.5t-12 -27.5q0 -18 12 -26.5t32 -8.5t32 8.5t12 26.5z" />
<glyph unicode="&#x2089;" horiz-adv-x="355" d="M225 268q0 22 -14 33.5t-37 11.5t-38 -11.5t-15 -33.5q0 -21 15 -34.5t38 -13.5t37 13.5t14 34.5zM122 57q38 21 60.5 46t31.5 48q-10 -5 -22 -7t-25 -2q-27 0 -51 8t-42 24t-28.5 40t-10.5 55q0 59 38 95.5t101 36.5q69 0 106.5 -41t37.5 -115q0 -56 -14 -99t-36 -75.5 t-48.5 -54.5t-51.5 -36z" />
<glyph unicode="&#x20ac;" horiz-adv-x="640" d="M612 163q-26 -81 -90.5 -129.5t-154.5 -48.5q-53 0 -99.5 13.5t-85 42.5t-66 75t-41.5 111h-48l17 118h17q1 5 1 10.5v11.5v11t-1 12h-34l17 115h32q14 65 42.5 110.5t68.5 73.5t91.5 40.5t111.5 12.5q62 0 107 -11t73 -30l-60 -151q-24 15 -55 25.5t-65 10.5 q-67 0 -102.5 -17.5t-54.5 -63.5h257l-45 -115h-234q-1 -6 -1 -15v-30h215l-47 -118h-148q9 -26 22.5 -42.5t30 -26.5t34.5 -13.5t37 -3.5q43 0 71 16.5t44 46.5z" />
<glyph unicode="&#x2117;" horiz-adv-x="813" d="M406 -10q-75 0 -141 29.5t-115 80t-77.5 118.5t-28.5 146q0 77 28.5 145t77.5 118.5t115 80t141 29.5t141 -29.5t115.5 -80t78.5 -118.5t29 -145q0 -78 -29 -146t-78.5 -118.5t-115.5 -80t-141 -29.5zM688 364q0 58 -22 109.5t-60.5 89t-90 59.5t-109.5 22t-109 -22 t-89.5 -59.5t-60.5 -89t-22 -109.5t22 -109t60.5 -89t89.5 -60t109 -22t109.5 22t90 60t60.5 89t22 109zM444 399q48 0 48 47q0 50 -48 50h-78v-97h78zM284 160v417h161q58 0 92.5 -32.5t34.5 -95.5t-35.5 -96.5t-98.5 -33.5h-72v-159h-82z" />
<glyph unicode="&#x2122;" horiz-adv-x="880" d="M143 261v375h-116v91h330v-91h-114v-375h-100zM729 261v276h-4l-64 -190h-78l-60 190h-4v-276h-92v466h123l74 -240h4l79 240h114v-466h-92z" />
<glyph unicode="&#x2153;" horiz-adv-x="930" d="M73 0zM142 339v277h-49v82h24q14 0 22 11t8 33h84v-403h-89zM73 0l573 727h119l-576 -727h-116zM647 109q12 -17 26.5 -27t37.5 -10t37 14.5t14 36.5q0 25 -15 41.5t-42 16.5q-26 0 -39 -4l-15 59l73 69h-121v88h228v-93l-55 -52q13 -6 27.5 -15.5t26.5 -24.5t20 -34.5 t8 -44.5q0 -72 -41.5 -109.5t-106.5 -37.5q-37 0 -70.5 15t-56.5 45z" />
<glyph unicode="&#x2154;" horiz-adv-x="1020" d="M73 0zM75 339v43q0 75 28.5 122t88.5 74q28 13 39 23.5t11 24.5t-11.5 22t-28.5 8q-20 0 -34 -13.5t-22 -36.5l-73 62q20 38 51.5 60t85.5 22q51 0 86 -29.5t35 -88.5q0 -47 -20 -73.5t-68 -48.5q-20 -9 -33 -18t-21 -18.5t-11.5 -21t-4.5 -24.5h156v-89h-254zM163 0 l573 727h119l-576 -727h-116zM737 109q12 -17 26.5 -27t37.5 -10t37 14.5t14 36.5q0 25 -15 41.5t-42 16.5q-26 0 -39 -4l-15 59l73 69h-121v88h228v-93l-55 -52q13 -6 27.5 -15.5t26.5 -24.5t20 -34.5t8 -44.5q0 -72 -41.5 -109.5t-106.5 -37.5q-37 0 -70.5 15t-56.5 45z " />
<glyph unicode="&#x215b;" horiz-adv-x="925" d="M73 0zM142 339v277h-49v82h24q14 0 22 11t8 33h84v-403h-89zM73 0l573 727h119l-576 -727h-116zM837 289q0 -30 -9 -49.5t-22 -31.5q17 -11 32 -33t15 -62q0 -58 -39 -94.5t-105 -36.5t-105 36.5t-39 94.5q0 41 14 63.5t32 32.5q-10 11 -19.5 31t-9.5 49q0 48 33 80 t94 32t94.5 -32t33.5 -80zM762 114q0 23 -14.5 33.5t-38.5 10.5t-38.5 -10.5t-14.5 -33.5q0 -22 15 -31.5t38 -9.5q24 0 38.5 9.5t14.5 31.5zM753 279q0 19 -12 27.5t-32 8.5t-32 -8.5t-12 -27.5q0 -18 12 -26.5t32 -8.5t32 8.5t12 26.5z" />
<glyph unicode="&#x215c;" horiz-adv-x="1012" d="M73 0zM137 458q12 -17 26.5 -27t37.5 -10t37 14.5t14 36.5q0 25 -15 41.5t-42 16.5q-26 0 -39 -4l-15 59l73 69h-121v88h228v-93l-55 -52q13 -6 27.5 -15.5t26.5 -24.5t20 -34.5t8 -44.5q0 -72 -41.5 -109.5t-106.5 -37.5q-37 0 -70.5 15t-56.5 45zM160 0l573 727h119 l-576 -727h-116zM924 289q0 -30 -9 -49.5t-22 -31.5q17 -11 32 -33t15 -62q0 -58 -39 -94.5t-105 -36.5t-105 36.5t-39 94.5q0 41 14 63.5t32 32.5q-10 11 -19.5 31t-9.5 49q0 48 33 80t94 32t94.5 -32t33.5 -80zM849 114q0 23 -14.5 33.5t-38.5 10.5t-38.5 -10.5 t-14.5 -33.5q0 -22 15 -31.5t38 -9.5q24 0 38.5 9.5t14.5 31.5zM840 279q0 19 -12 27.5t-32 8.5t-32 -8.5t-12 -27.5q0 -18 12 -26.5t32 -8.5t32 8.5t12 26.5z" />
<glyph unicode="&#x215d;" horiz-adv-x="1011" d="M73 0zM129 457q27 -36 73 -36q23 0 40 15.5t17 46.5q0 36 -16 50t-41 14q-15 0 -25.5 -6.5t-16.5 -12.5l-82 19l20 195h225v-89h-147l-3 -30q10 3 19.5 4t17.5 1q62 0 100 -36.5t38 -108.5q0 -74 -41 -113t-110 -39q-39 0 -69.5 14.5t-54.5 37.5zM159 0l573 727h119 l-576 -727h-116zM923 289q0 -30 -9 -49.5t-22 -31.5q17 -11 32 -33t15 -62q0 -58 -39 -94.5t-105 -36.5t-105 36.5t-39 94.5q0 41 14 63.5t32 32.5q-10 11 -19.5 31t-9.5 49q0 48 33 80t94 32t94.5 -32t33.5 -80zM848 114q0 23 -14.5 33.5t-38.5 10.5t-38.5 -10.5 t-14.5 -33.5q0 -22 15 -31.5t38 -9.5q24 0 38.5 9.5t14.5 31.5zM839 279q0 19 -12 27.5t-32 8.5t-32 -8.5t-12 -27.5q0 -18 12 -26.5t32 -8.5t32 8.5t12 26.5z" />
<glyph unicode="&#x215e;" horiz-adv-x="975" d="M73 0zM130 339l110 314h-167v89h267v-88l-105 -315h-105zM123 0l573 727h119l-576 -727h-116zM887 289q0 -30 -9 -49.5t-22 -31.5q17 -11 32 -33t15 -62q0 -58 -39 -94.5t-105 -36.5t-105 36.5t-39 94.5q0 41 14 63.5t32 32.5q-10 11 -19.5 31t-9.5 49q0 48 33 80t94 32 t94.5 -32t33.5 -80zM812 114q0 23 -14.5 33.5t-38.5 10.5t-38.5 -10.5t-14.5 -33.5q0 -22 15 -31.5t38 -9.5q24 0 38.5 9.5t14.5 31.5zM803 279q0 19 -12 27.5t-32 8.5t-32 -8.5t-12 -27.5q0 -18 12 -26.5t32 -8.5t32 8.5t12 26.5z" />
<glyph unicode="&#x2202;" horiz-adv-x="608" d="M398 220q0 45 -26 63t-64 18q-56 0 -93 -25t-37 -71q0 -43 29 -60t72 -17q21 0 42.5 5.5t38.5 16.5t27.5 28.5t10.5 41.5zM431 395q-4 49 -24.5 83t-50 57t-65 37t-68.5 23l58 139q73 -17 127.5 -51t89.5 -82.5t52.5 -110.5t17.5 -135q0 -40 -6 -83t-19.5 -84t-35 -78 t-54 -64.5t-75.5 -44t-99 -16.5q-50 0 -93.5 12.5t-75.5 39t-51 67.5t-19 98q0 54 19 96.5t52 72t78.5 45t99.5 15.5q37 0 73.5 -9.5t62.5 -29.5z" />
<glyph unicode="&#x220f;" horiz-adv-x="681" d="M467 -179v752h-253v-752h-153v906h561v-906h-155z" />
<glyph unicode="&#x2211;" horiz-adv-x="626" d="M46 -156v115l213 327l-213 326v115h539v-145h-356l189 -296l-189 -297h356v-145h-539z" />
<glyph unicode="&#x2212;" horiz-adv-x="592" d="M36 297v124h519v-124h-519z" />
<glyph unicode="&#x221a;" horiz-adv-x="610" d="M223 0l-73 252h-119v139h231l40 -164l127 500h150l-206 -727h-150z" />
<glyph unicode="&#x221e;" horiz-adv-x="846" d="M420 202q-26 -35 -69.5 -51t-91.5 -16q-52 0 -92 16.5t-67 47t-41 73t-14 95.5q0 50 14 91.5t41 71.5t67 46.5t92 16.5q51 0 95 -19.5t70 -48.5q26 35 68.5 51.5t93.5 16.5q53 0 93.5 -16.5t67.5 -46.5t41 -72.5t14 -94.5q0 -51 -14 -93t-41.5 -72t-68 -46.5t-92.5 -16.5 q-51 0 -95.5 19.5t-70.5 47.5zM584 262q53 0 77 30t24 74q0 46 -22 73.5t-79 27.5q-56 0 -81 -25t-25 -76t24.5 -77.5t81.5 -26.5zM369 364q0 49 -25.5 75.5t-82.5 26.5q-53 0 -76 -29.5t-23 -72.5q0 -48 21 -76t78 -28q56 0 82 26t26 78z" />
<glyph unicode="&#x222b;" horiz-adv-x="408" d="M21 -179v118h53q22 0 40.5 18t18.5 56v522q0 52 11.5 89t35.5 59.5t62 33t91 10.5h53v-118h-53q-22 0 -40.5 -18t-18.5 -56v-522q0 -53 -11.5 -89.5t-35.5 -59t-62 -33t-91 -10.5h-53z" />
<glyph unicode="&#x2248;" horiz-adv-x="592" d="M28 132zM556 244q-29 -55 -73.5 -83.5t-90.5 -28.5q-36 0 -64 13t-51.5 28.5t-44.5 28.5t-43 13q-20 0 -38.5 -18t-34.5 -46l-88 65q31 54 73.5 79.5t88.5 25.5q41 0 70 -13t51.5 -28t41.5 -28t39 -13q23 0 42 19t34 49zM560 504q-29 -55 -73.5 -83.5t-90.5 -28.5 q-36 0 -64 13t-51.5 28.5t-44.5 28.5t-43 13q-20 0 -38.5 -18t-34.5 -46l-88 65q31 54 73.5 79.5t88.5 25.5q41 0 70 -13t51.5 -28t41.5 -28t39 -13q23 0 42 19t34 49z" />
<glyph unicode="&#x2260;" horiz-adv-x="592" d="M252 144l-75 -144h-141l74 144h-74v125h139l92 179h-231v125h295l80 154h144l-80 -154h80v-125h-145l-93 -179h238v-125h-303z" />
<glyph unicode="&#x2264;" horiz-adv-x="592" d="M36 0zM36 297v124l519 192v-126l-369 -129l369 -127v-126zM36 -103v124h519v-124h-519z" />
<glyph unicode="&#x2265;" horiz-adv-x="592" d="M36 0zM36 105v126l368 127l-368 129v126l519 -192v-124zM36 -103v124h519v-124h-519z" />
<glyph unicode="&#x25ca;" horiz-adv-x="595" d="M235 0l-190 364l190 363h124l192 -363l-192 -364h-124zM408 364l-111 235l-110 -235l110 -236z" />
<glyph unicode="&#xfb01;" horiz-adv-x="608" d="M66 0zM66 0zM66 0v727h406v-144h-261v-139h252v-143h-252v-301h-145zM405 0zM405 0v727h146v-727h-146z" />
<glyph unicode="&#xfb02;" horiz-adv-x="604" d="M66 0zM66 0zM66 0v727h406v-144h-261v-139h252v-143h-252v-301h-145zM401 0zM401 0v727h145v-583h323v-144h-468z" />
<glyph horiz-adv-x="308" d="M0 0z" />
</font>
</defs>
</svg>
